<?xml version="1.0" encoding="UTF-8"?>
<!DOCTYPE svg PUBLIC "-//W3C//DTD SVG 1.1//EN" "http://www.w3.org/Graphics/SVG/1.1/DTD/svg11.dtd">
<!-- Creator: CorelDRAW X7 -->
<svg xmlns="http://www.w3.org/2000/svg" xml:space="preserve" width="60.5278mm" height="10.1126mm" version="1.1" style="shape-rendering:geometricPrecision; text-rendering:geometricPrecision; image-rendering:optimizeQuality; fill-rule:evenodd; clip-rule:evenodd"
viewBox="0 0 923015 154212"
 xmlns:xlink="http://www.w3.org/1999/xlink">
 <defs>
  <style type="text/css">
   <![CDATA[
    .fil0 {fill:#05ABAB;fill-rule:nonzero}
   ]]>
  </style>
 </defs>
 <g id="Слой_x0020_1">
  <metadata id="CorelCorpID_0Corel-Layer"/>
  <path class="fil0" d="M23714 46802l-12460 0 0 -35914 -11254 0 0 -10179 34935 0 0 10179 -11221 0 0 35914zm17807 -46093l11599 0 0 21089c0,947 -12,1947 -34,2979 -21,1045 -53,2067 -96,3078 -42,1011 -87,1968 -151,2873 -64,904 -140,1700 -225,2388l257 0 18969 -32407 14278 0 0 46093 -11631 0 0 -19958c0,-860 22,-1839 54,-2927 32,-1098 75,-2216 119,-3378 53,-1151 117,-2270 193,-3336 75,-1075 150,-2012 237,-2808l-281 0 -18978 32407 -14310 0 0 -46093zm75078 9501c-1475,0 -2788,312 -3939,936 -1162,624 -2141,1528 -2959,2711 -828,1184 -1453,2626 -1883,4325 -430,1700 -645,3626 -645,5778 0,2916 366,5369 1109,7349 730,1990 1850,3486 3356,4497 1496,1023 3389,1528 5659,1528 2056,0 4035,-290 5940,-850 1905,-570 3818,-1259 5755,-2055l0 10534c-2043,903 -4131,1549 -6261,1947 -2131,398 -4401,603 -6789,603 -5004,0 -9103,-1001 -12276,-2992 -3186,-1990 -5531,-4755 -7036,-8296 -1496,-3539 -2250,-7649 -2250,-12329 0,-3497 484,-6704 1463,-9609 980,-2905 2411,-5433 4305,-7574 1892,-2131 4227,-3787 7014,-4959 2787,-1173 5972,-1754 9565,-1754 2228,0 4573,258 7048,775 2463,515 4874,1332 7230,2473l-3820 9802c-1679,-796 -3378,-1474 -5099,-2023 -1722,-537 -3551,-817 -5487,-817zm39002 19807l-9113 16785 -14127 0 12641 -20163c-1259,-710 -2443,-1624 -3539,-2732 -1109,-1120 -1992,-2465 -2669,-4057 -668,-1581 -1011,-3422 -1011,-5531 0,-4497 1571,-7885 4702,-10177 3130,-2292 7821,-3433 14084,-3433l15288 0 0 46093 -12448 0 0 -16785 -3808 0zm3808 -19882l-2646 0c-1722,0 -3046,247 -3971,742 -926,495 -1560,1097 -1905,1829 -355,721 -526,1453 -526,2184 0,2163 624,3669 1861,4509 1238,839 2862,1258 4852,1258l2335 0 0 -10522zm61467 36667l-12546 0 0 -17043c-2839,969 -5410,1669 -7713,2109 -2292,441 -4476,667 -6531,667 -4336,0 -7736,-1075 -10201,-3216 -2473,-2141 -3701,-5187 -3701,-9113l0 -19497 12546 0 0 15364c0,2066 409,3626 1237,4692 829,1054 2313,1592 4433,1592 1302,0 2787,-172 4444,-527 1657,-345 3486,-882 5486,-1624l0 -19497 12546 0 0 46093zm9932 0l0 -46093 12512 0 0 46093 -12512 0zm-194205 57745c0,3055 -936,5498 -2786,7328 -1862,1839 -4552,3054 -8059,3667l0 249c4261,366 7434,1506 9500,3431 2077,1936 3110,4433 3110,7510 0,2701 -743,5099 -2227,7187 -1474,2088 -3658,3723 -6542,4897 -2873,1183 -6412,1775 -10620,1775 -3990,0 -7434,-227 -10317,-690 -2895,-462 -5304,-1064 -7241,-1796l0 -10726c1280,634 2776,1172 4465,1624 1688,451 3410,806 5153,1043 1743,236 3314,366 4724,366 3572,0 6100,-388 7585,-1152 1484,-764 2216,-1990 2216,-3690 0,-1560 -881,-2733 -2658,-3507 -1775,-775 -4421,-1162 -7928,-1162l-5423 0 0 -10092 4853 0c2645,0 4669,-141 6067,-441 1399,-291 2356,-743 2852,-1334 505,-592 764,-1345 764,-2250 0,-1107 -517,-1958 -1528,-2571 -1023,-613 -2733,-925 -5122,-925 -1916,0 -3808,259 -5691,774 -1884,517 -3669,1335 -5348,2443l-5229 -8575c1743,-1130 3507,-2055 5294,-2777 1786,-709 3755,-1236 5896,-1570 2141,-334 4637,-505 7467,-505 3464,0 6455,494 8973,1484 2507,990 4433,2345 5778,4056 1345,1722 2022,3691 2022,5929zm38046 35333l-2271 -8585 -14976 0 -2324 8585 -13686 0 15031 -46093 16611 0 15225 46093 -13610 0zm-4852 -18796l-1992 -7532c-204,-817 -515,-1979 -913,-3497 -400,-1517 -798,-3077 -1185,-4701 -388,-1624 -688,-2959 -892,-4003 -194,1044 -464,2335 -807,3873 -345,1539 -700,3056 -1077,4563 -366,1507 -677,2765 -957,3765l-1980 7532 9803 0zm63544 -27297l0 35882 6294 0 0 24543 -12137 0 0 -14332 -26855 0 0 14332 -12137 0 0 -24543 3820 0c1431,-2420 2722,-5014 3874,-7789 1162,-2776 2173,-5691 3045,-8737 871,-3045 1592,-6197 2141,-9436 560,-3248 968,-6551 1215,-9920l30740 0zm-12556 10179l-8188 0c-216,2248 -517,4476 -915,6670 -398,2195 -904,4369 -1496,6510 -602,2152 -1291,4261 -2066,6336 -785,2088 -1656,4144 -2614,6187l15279 0 0 -25703zm68127 12846c0,3561 -430,6800 -1280,9716 -851,2915 -2185,5422 -3992,7531 -1807,2099 -4120,3712 -6961,4842 -2841,1130 -6230,1690 -10178,1690 -3873,0 -7221,-560 -10039,-1690 -2830,-1130 -5154,-2733 -6982,-4831 -1830,-2098 -3186,-4605 -4067,-7532 -883,-2926 -1324,-6186 -1324,-9779 0,-4799 785,-8974 2377,-12524 1582,-3540 4035,-6294 7360,-8241 3324,-1948 7563,-2916 12739,-2916 5251,0 9522,979 12804,2937 3292,1958 5701,4712 7240,8273 1528,3552 2303,7725 2303,12524zm-31718 11c0,2775 322,5165 946,7166 636,2000 1636,3539 3002,4616 1367,1075 3152,1613 5359,1613 2291,0 4110,-538 5465,-1613 1356,-1077 2335,-2616 2927,-4616 602,-2001 903,-4391 903,-7166 0,-4174 -688,-7478 -2076,-9898 -1388,-2421 -3777,-3637 -7155,-3637 -2249,0 -4067,549 -5444,1646 -1377,1097 -2367,2657 -2992,4681 -624,2022 -935,4422 -935,7208zm40035 -23036l16074 0c6660,0 11414,990 14245,2959 2841,1980 4260,4820 4260,8510 0,2024 -366,3735 -1087,5144 -730,1409 -1645,2518 -2743,3335 -1107,817 -2237,1377 -3389,1679l0 311c1258,313 2518,840 3765,1560 1249,721 2292,1809 3120,3250 830,1442 1249,3390 1249,5852 0,2788 -710,5197 -2130,7221 -1421,2011 -3443,3561 -6068,4648 -2626,1086 -5746,1624 -9361,1624l-17935 0 0 -46093zm12448 17677l3754 0c2056,0 3508,-419 4348,-1268 839,-851 1258,-1884 1258,-3110 0,-1259 -473,-2217 -1430,-2883 -958,-656 -2433,-990 -4433,-990l-3497 0 0 8251zm0 9113l0 9684 4378 0c2175,0 3680,-462 4541,-1399 860,-936 1292,-2109 1292,-3518 0,-817 -183,-1592 -549,-2324 -366,-721 -990,-1313 -1873,-1764 -881,-451 -2109,-679 -3658,-679l-4131 0zm74173 -3765c0,3561 -430,6800 -1279,9716 -851,2915 -2186,5422 -3993,7531 -1807,2099 -4120,3712 -6961,4842 -2841,1130 -6229,1690 -10177,1690 -3874,0 -7221,-560 -10039,-1690 -2830,-1130 -5154,-2733 -6983,-4831 -1830,-2098 -3185,-4605 -4067,-7532 -883,-2926 -1324,-6186 -1324,-9779 0,-4799 786,-8974 2378,-12524 1581,-3540 4035,-6294 7359,-8241 3325,-1948 7564,-2916 12740,-2916 5250,0 9521,979 12803,2937 3292,1958 5702,4712 7240,8273 1528,3552 2303,7725 2303,12524zm-31717 11c0,2775 322,5165 945,7166 636,2000 1637,3539 3003,4616 1366,1075 3152,1613 5359,1613 2290,0 4109,-538 5465,-1613 1356,-1077 2335,-2616 2926,-4616 603,-2001 903,-4391 903,-7166 0,-4174 -688,-7478 -2075,-9898 -1388,-2421 -3778,-3637 -7155,-3637 -2250,0 -4067,549 -5444,1646 -1377,1097 -2367,2657 -2992,4681 -624,2022 -935,4422 -935,7208zm79273 23057l-12513 0 0 -35914 -8791 0c-151,1732 -345,3669 -602,5832 -247,2162 -528,4367 -828,6638 -313,2260 -624,4433 -969,6520 -334,2086 -678,3906 -1032,5466 -549,2549 -1356,4733 -2422,6542 -1053,1817 -2496,3205 -4324,4173 -1830,969 -4186,1454 -7070,1454 -926,0 -1786,-66 -2582,-194 -796,-119 -1560,-291 -2302,-496l0 -9619c570,194 1098,345 1581,453 485,117 990,183 1507,183 700,0 1313,-204 1851,-602 537,-398 1032,-1281 1505,-2626 474,-1345 947,-3422 1411,-6230 160,-904 387,-2249 655,-4056 279,-1796 581,-3927 937,-6402 344,-2464 698,-5154 1064,-8080 366,-2927 732,-5971 1087,-9135l31837 0 0 46093zm37324 0l-27360 0 0 -46093 27360 0 0 9996 -14912 0 0 7251 13803 0 0 9996 -13803 0 0 8705 14912 0 0 10145zm47566 0l-12512 0 0 -18786 -14472 0 0 18786 -12512 0 0 -46093 12512 0 0 17096 14472 0 0 -17096 12512 0 0 46093zm9964 -46093l11599 0 0 21089c0,947 -12,1947 -34,2979 -21,1045 -53,2067 -96,3078 -42,1011 -87,1968 -151,2873 -64,904 -140,1700 -225,2388l257 0 18969 -32407 14278 0 0 46093 -11631 0 0 -19958c0,-860 22,-1839 54,-2927 32,-1098 75,-2215 119,-3377 53,-1152 117,-2271 193,-3337 75,-1075 150,-2011 237,-2807l-281 0 -18978 32406 -14310 0 0 -46093zm96069 46093l-14407 0 -8984 -14406 -8888 14406 -14083 0 15289 -23585 -14375 -22508 13805 0 8316 14246 8006 -14246 14223 0 -14600 23487 15698 22606zm21950 0l0 -46093 37765 0 0 46093 -12546 0 0 -35914 -12707 0 0 35914 -12512 0zm75971 0l-2271 -8585 -14976 0 -2324 8585 -13687 0 15032 -46093 16611 0 15225 46093 -13610 0zm-4852 -18796l-1992 -7532c-204,-817 -515,-1979 -913,-3497 -400,-1517 -798,-3077 -1185,-4701 -388,-1624 -688,-2959 -892,-4003 -194,1044 -464,2335 -807,3873 -345,1539 -700,3056 -1077,4563 -366,1507 -677,2765 -957,3765l-1980 7532 9803 0zm70946 8585l0 24543 -12137 0 0 -14332 -35365 0 0 -46093 12512 0 0 35882 12793 0 0 -35882 12524 0 0 35882 9673 0zm6144 10211l0 -46093 12512 0 0 46093 -12512 0zm43908 -36527c-1409,0 -2680,171 -3831,516 -1139,334 -2152,872 -3012,1592 -860,732 -1560,1647 -2109,2755 -549,1107 -925,2431 -1130,3970l18281 0 0 9489 -18281 0c98,1356 388,2561 851,3627 462,1053 1107,1947 1948,2679 838,730 1892,1290 3141,1667 1247,376 2690,570 4335,570 2475,0 4735,-247 6779,-753 2034,-505 4186,-1162 6456,-1958l0 10307c-1851,819 -3992,1485 -6435,2002 -2431,516 -5002,775 -7713,775 -5218,0 -9468,-979 -12771,-2949 -3293,-1959 -5736,-4702 -7296,-8241 -1570,-3540 -2345,-7683 -2345,-12459 0,-3454 483,-6640 1441,-9545 968,-2893 2422,-5422 4337,-7563 1926,-2141 4325,-3798 7208,-4981 2873,-1183 6219,-1775 10018,-1775 3076,0 5852,354 8359,1075 2497,711 4702,1496 6617,2356l-4003 10126c-1721,-969 -3399,-1755 -5024,-2368 -1635,-613 -3572,-914 -5821,-914zm61316 36527l-12512 0 0 -18786 -14472 0 0 18786 -12512 0 0 -46093 12512 0 0 17096 14472 0 0 -17096 12512 0 0 46093zm30299 0l-12460 0 0 -35914 -11254 0 0 -10179 34935 0 0 10179 -11221 0 0 35914zm17807 0l0 -46093 12512 0 0 46093 -12512 0zm22476 -46093l16075 0c6659,0 11414,990 14244,2959 2841,1980 4261,4820 4261,8510 0,2024 -366,3735 -1087,5144 -731,1409 -1646,2518 -2744,3335 -1107,817 -2237,1377 -3388,1679l0 311c1258,313 2518,840 3765,1560 1249,721 2292,1809 3120,3250 830,1442 1249,3390 1249,5852 0,2788 -711,5197 -2130,7221 -1422,2011 -3444,3561 -6068,4648 -2626,1086 -5746,1624 -9362,1624l-17935 0 0 -46093zm12448 17677l3755 0c2056,0 3507,-419 4348,-1268 838,-851 1258,-1884 1258,-3110 0,-1259 -473,-2217 -1431,-2883 -957,-656 -2432,-990 -4433,-990l-3497 0 0 8251zm0 9113l0 9684 4379 0c2174,0 3679,-462 4541,-1399 860,-936 1292,-2109 1292,-3518 0,-817 -183,-1592 -549,-2324 -366,-721 -990,-1313 -1873,-1764 -882,-451 -2109,-679 -3658,-679l-4132 0zm40659 2841l-10393 0 -1615 -29631 13622 0 -1614 29631zm-11878 11082c0,-2226 655,-3786 1968,-4691 1313,-904 2873,-1355 4681,-1355 1785,0 3324,451 4605,1355 1281,905 1926,2465 1926,4691 0,2130 -645,3658 -1926,4605 -1281,947 -2820,1420 -4605,1420 -1808,0 -3368,-473 -4681,-1420 -1313,-947 -1968,-2475 -1968,-4605z"/>
 </g>
</svg>
