<?xml version="1.0" encoding="UTF-8"?>
<!DOCTYPE svg PUBLIC "-//W3C//DTD SVG 1.1//EN" "http://www.w3.org/Graphics/SVG/1.1/DTD/svg11.dtd">
<!-- Creator: CorelDRAW X7 -->
<svg xmlns="http://www.w3.org/2000/svg" xml:space="preserve" width="51.1571mm" height="3.6575mm" version="1.1" style="shape-rendering:geometricPrecision; text-rendering:geometricPrecision; image-rendering:optimizeQuality; fill-rule:evenodd; clip-rule:evenodd"
viewBox="0 0 659342 47140"
 xmlns:xlink="http://www.w3.org/1999/xlink">
 <defs>
  <style type="text/css">
   <![CDATA[
    .fil0 {fill:#05ABAB;fill-rule:nonzero}
   ]]>
  </style>
 </defs>
 <g id="Слой_x0020_1">
  <metadata id="CorelCorpID_0Corel-Layer"/>
  <path class="fil0" d="M0 599l13586 0c5628,0 9647,837 12039,2501 2401,1674 3601,4074 3601,7193 0,1710 -309,3156 -919,4347 -617,1191 -1390,2128 -2318,2819 -936,691 -1891,1164 -2864,1419l0 263c1063,264 2128,710 3182,1318 1055,610 1937,1529 2637,2747 701,1219 1055,2865 1055,4947 0,2356 -600,4392 -1800,6102 -1201,1700 -2910,3010 -5128,3929 -2220,917 -4857,1372 -7913,1372l-15158 0 0 -38957zm10521 14941l3173 0c1737,0 2964,-355 3675,-1073 709,-719 1063,-1591 1063,-2628 0,-1064 -400,-1874 -1209,-2437 -809,-554 -2056,-836 -3747,-836l-2955 0 0 6974zm0 7702l0 8184 3700 0c1838,0 3110,-390 3838,-1182 727,-791 1092,-1782 1092,-2973 0,-691 -155,-1346 -464,-1964 -309,-610 -836,-1110 -1583,-1491 -745,-382 -1782,-574 -3092,-574l-3491 0zm59835 -22643l-11830 27390c-1146,2683 -2392,4928 -3729,6739 -1327,1801 -3011,3155 -5047,4064 -2027,910 -4693,1365 -7976,1365 -890,0 -1973,-64 -3236,-192 -1273,-117 -2465,-327 -3583,-608l0 -8794c991,390 2064,654 3218,791 1155,128 2193,200 3119,200 974,0 1774,-164 2384,-473 618,-310 1100,-709 1455,-1182 354,-473 618,-937 800,-1382l-12713 -27918 11348 0 4802 11904c245,610 537,1346 873,2227 336,883 664,1774 973,2684 309,908 545,1700 709,2373l318 0c218,-864 509,-1864 883,-2983 373,-1128 745,-2182 1118,-3182 373,-991 636,-1710 800,-2155l3965 -10868 11349 0zm36738 38957l-10575 0 0 -30354 -7431 0c-127,1465 -291,3101 -509,4929 -208,1828 -446,3691 -699,5610 -265,1911 -528,3747 -819,5512 -282,1763 -573,3300 -872,4619 -464,2155 -1146,4000 -2047,5529 -891,1536 -2110,2709 -3655,3528 -1547,818 -3538,1228 -5976,1228 -782,0 -1509,-55 -2182,-164 -672,-100 -1318,-246 -1946,-419l0 -8130c482,164 928,292 1337,383 410,99 836,155 1273,155 592,0 1110,-173 1565,-509 454,-337 872,-1083 1272,-2220 401,-1137 800,-2892 1192,-5265 135,-764 328,-1901 554,-3428 236,-1518 491,-3319 792,-5411 291,-2083 590,-4356 899,-6829 310,-2474 619,-5046 919,-7721l26908 0 0 38957zm6502 -4547c0,-1881 554,-3200 1664,-3964 1110,-765 2446,-1146 4011,-1146 1473,0 2754,381 3837,1146 1083,764 1628,2083 1628,3964 0,1801 -545,3092 -1628,3893 -1083,800 -2364,1200 -3837,1200 -1565,0 -2901,-400 -4011,-1200 -1110,-801 -1664,-2092 -1664,-3893zm31865 -34410l13585 0c5629,0 9647,837 12040,2501 2401,1674 3601,4074 3601,7193 0,1710 -310,3156 -919,4347 -618,1191 -1391,2128 -2319,2819 -936,691 -1891,1164 -2864,1419l0 263c1064,264 2128,710 3182,1318 1056,610 1938,1529 2637,2747 702,1219 1056,2865 1056,4947 0,2356 -601,4392 -1801,6102 -1201,1700 -2910,3010 -5128,3929 -2219,917 -4856,1372 -7912,1372l-15158 0 0 -38957zm10520 14941l3174 0c1737,0 2964,-355 3674,-1073 709,-719 1063,-1591 1063,-2628 0,-1064 -399,-1874 -1208,-2437 -810,-554 -2056,-836 -3747,-836l-2956 0 0 6974zm0 7702l0 8184 3701 0c1838,0 3110,-390 3838,-1182 727,-791 1092,-1782 1092,-2973 0,-691 -155,-1346 -464,-1964 -310,-610 -837,-1110 -1583,-1491 -745,-382 -1783,-574 -3092,-574l-3492 0zm62691 -3182c0,3009 -364,5747 -1082,8211 -719,2464 -1847,4583 -3374,6366 -1527,1773 -3483,3137 -5884,4092 -2401,955 -5265,1428 -8602,1428 -3273,0 -6102,-473 -8484,-1428 -2392,-955 -4356,-2310 -5902,-4083 -1546,-1774 -2692,-3893 -3437,-6366 -746,-2473 -1119,-5229 -1119,-8265 0,-4056 664,-7585 2009,-10586 1337,-2991 3411,-5319 6220,-6965 2810,-1646 6393,-2464 10768,-2464 4437,0 8047,827 10821,2482 2783,1655 4819,3983 6119,6992 1292,3002 1947,6530 1947,10586zm-26807 9c0,2346 272,4365 799,6056 537,1691 1383,2992 2537,3902 1155,908 2665,1363 4529,1363 1936,0 3474,-455 4620,-1363 1146,-910 1973,-2211 2473,-3902 509,-1691 763,-3710 763,-6056 0,-3528 -581,-6321 -1754,-8366 -1173,-2046 -3193,-3074 -6047,-3074 -1901,0 -3438,464 -4602,1392 -1163,927 -2000,2245 -2528,3955 -527,1709 -790,3738 -790,6093zm47312 -19470c4938,0 8639,1074 11104,3220 2455,2155 3682,5211 3682,9166 0,1774 -254,3483 -754,5120 -510,1627 -1338,3083 -2484,4365 -1145,1282 -2664,2292 -4554,3037 -1892,746 -4220,1118 -6994,1118l-2955 0 0 12931 -10521 0 0 -38957 13476 0zm-236 8503l-2719 0 0 8948 2083 0c899,0 1745,-154 2527,-473 783,-309 1410,-809 1883,-1518 463,-701 700,-1637 700,-2811 0,-1218 -363,-2218 -1092,-2991 -727,-774 -1854,-1155 -3382,-1155zm57679 10958c0,3009 -363,5747 -1081,8211 -719,2464 -1847,4583 -3374,6366 -1527,1773 -3483,3137 -5884,4092 -2401,955 -5265,1428 -8602,1428 -3273,0 -6102,-473 -8484,-1428 -2392,-955 -4357,-2310 -5902,-4083 -1547,-1774 -2692,-3893 -3437,-6366 -747,-2473 -1119,-5229 -1119,-8265 0,-4056 664,-7585 2009,-10586 1337,-2991 3411,-5319 6220,-6965 2810,-1646 6393,-2464 10767,-2464 4438,0 8048,827 10822,2482 2782,1655 4819,3983 6119,6992 1292,3002 1946,6530 1946,10586zm-26807 9c0,2346 272,4365 800,6056 537,1691 1382,2992 2537,3902 1155,908 2664,1363 4529,1363 1936,0 3474,-455 4620,-1363 1145,-910 1973,-2211 2473,-3902 509,-1691 763,-3710 763,-6056 0,-3528 -581,-6321 -1754,-8366 -1173,-2046 -3193,-3074 -6048,-3074 -1901,0 -3437,464 -4601,1392 -1164,927 -2000,2245 -2528,3955 -528,1709 -791,3738 -791,6093zm33837 19487l0 -38957 25625 0 0 8449 -15104 0 0 5310 3810 0c3338,0 6092,509 8248,1518 2155,1011 3755,2419 4810,4220 1046,1800 1564,3883 1564,6247 0,4101 -1382,7330 -4156,9684 -2764,2356 -6619,3529 -11557,3529l-13240 0zm10521 -8339l2910 0c1718,0 2982,-372 3792,-1127 809,-754 1209,-1837 1209,-3238 0,-909 -209,-1664 -628,-2281 -408,-610 -982,-1074 -1718,-1392 -728,-319 -1538,-482 -2446,-482l-3119 0 0 8520zm58825 8339l-11912 0 -11559 -19741 0 19741 -10575 0 0 -38957 10575 0 0 18869 11140 -18869 11559 0 -12014 18597 12786 20360zm27099 0l-23125 0 0 -38957 23125 0 0 8449 -12604 0 0 6128 11667 0 0 8449 -11667 0 0 7357 12604 0 0 8574zm6821 -38957l13586 0c5628,0 9647,837 12039,2501 2401,1674 3601,4074 3601,7193 0,1710 -309,3156 -919,4347 -617,1191 -1391,2128 -2319,2819 -935,691 -1891,1164 -2864,1419l0 263c1064,264 2128,710 3183,1318 1055,610 1937,1529 2637,2747 701,1219 1055,2865 1055,4947 0,2356 -600,4392 -1800,6102 -1202,1700 -2911,3010 -5129,3929 -2219,917 -4856,1372 -7912,1372l-15158 0 0 -38957zm10521 14941l3173 0c1737,0 2964,-355 3674,-1073 709,-719 1064,-1591 1064,-2628 0,-1064 -400,-1874 -1209,-2437 -810,-554 -2056,-836 -3747,-836l-2955 0 0 6974zm0 7702l0 8184 3700 0c1838,0 3110,-390 3838,-1182 727,-791 1092,-1782 1092,-2973 0,-691 -155,-1346 -464,-1964 -309,-610 -837,-1110 -1583,-1491 -745,-382 -1782,-574 -3092,-574l-3491 0zm26243 -22643l9803 0 0 17824c0,800 -10,1646 -28,2518 -18,883 -45,1747 -81,2601 -36,855 -74,1664 -128,2428 -54,765 -118,1438 -190,2019l217 0 16032 -27390 12068 0 0 38957 -9830 0 0 -16868c0,-727 18,-1555 45,-2474 27,-928 63,-1872 101,-2854 45,-973 99,-1919 163,-2820 63,-909 127,-1700 200,-2373l-237 0 -16040 27389 -12095 0 0 -38957zm79122 38957l-10603 0 0 -14404c-2400,818 -4573,1410 -6519,1783 -1938,372 -3783,563 -5521,563 -3664,0 -6538,-909 -8621,-2718 -2090,-1810 -3128,-4384 -3128,-7703l0 -16478 10604 0 0 12986c0,1746 345,3064 1045,3965 701,891 1955,1346 3747,1346 1100,0 2356,-146 3755,-446 1401,-291 2947,-745 4638,-1373l0 -16478 10603 0 0 38957zm32292 0l-1919 -7256 -12658 0 -1964 7256 -11567 0 12704 -38957 14040 0 12868 38957 -11504 0zm-4101 -15886l-1683 -6366c-173,-691 -436,-1673 -772,-2955 -338,-1283 -674,-2601 -1001,-3974 -328,-1372 -582,-2500 -754,-3383 -164,883 -392,1973 -682,3274 -291,1300 -592,2583 -910,3856 -309,1273 -572,2337 -810,3182l-1672 6366 8284 0zm28872 7920l372 610c-318,1300 -735,2856 -1236,4674 -509,1819 -1055,3646 -1654,5483 -592,1837 -1193,3437 -1801,4783l-7430 0c354,-1673 701,-3428 1037,-5274 337,-1846 655,-3655 936,-5429 282,-1773 500,-3392 664,-4847l9112 0zm46359 -22560c0,1845 -400,3446 -1191,4792 -791,1345 -1837,2446 -3146,3300 -1301,855 -2729,1492 -4274,1920l0 163c3110,391 5511,1337 7211,2846 1691,1500 2546,3637 2546,6402 0,2137 -573,4092 -1709,5865 -1137,1774 -2901,3193 -5301,4247 -2401,1064 -5475,1592 -9249,1592 -2519,0 -4665,-192 -6447,-565 -1774,-372 -3492,-881 -5166,-1536l0 -8738c1692,863 3429,1509 5211,1926 1783,419 3410,628 4884,628 2564,0 4309,-372 5237,-1101 937,-735 1400,-1718 1400,-2955 0,-899 -218,-1655 -664,-2282 -444,-627 -1263,-1109 -2464,-1454 -1200,-338 -2918,-511 -5155,-511l-2401 0 0 -7911 2455 0c1982,0 3565,-181 4729,-536 1163,-354 2000,-845 2519,-1464 509,-619 772,-1327 772,-2128 0,-1036 -399,-1809 -1200,-2310 -800,-500 -1854,-746 -3173,-746 -1174,0 -2273,155 -3302,473 -1036,328 -1927,682 -2691,1074 -764,390 -1346,709 -1737,955l-4364 -7030c1618,-1100 3464,-2037 5556,-2800 2081,-764 4819,-1146 8193,-1146 4010,0 7165,799 9466,2400 2300,1610 3455,3810 3455,6630zm31973 0c0,1845 -400,3446 -1191,4792 -792,1345 -1837,2446 -3146,3300 -1301,855 -2729,1492 -4274,1920l0 163c3110,391 5511,1337 7211,2846 1691,1500 2545,3637 2545,6402 0,2137 -572,4092 -1709,5865 -1136,1774 -2901,3193 -5301,4247 -2401,1064 -5475,1592 -9248,1592 -2519,0 -4665,-192 -6447,-565 -1774,-372 -3492,-881 -5166,-1536l0 -8738c1692,863 3428,1509 5211,1926 1782,419 3410,628 4883,628 2565,0 4310,-372 5238,-1101 937,-735 1400,-1718 1400,-2955 0,-899 -218,-1655 -664,-2282 -445,-627 -1263,-1109 -2464,-1454 -1200,-338 -2918,-511 -5156,-511l-2401 0 0 -7911 2455 0c1983,0 3565,-181 4729,-536 1164,-354 2001,-845 2520,-1464 509,-619 772,-1327 772,-2128 0,-1036 -399,-1809 -1200,-2310 -800,-500 -1855,-746 -3173,-746 -1174,0 -2274,155 -3302,473 -1036,328 -1927,682 -2691,1074 -765,390 -1346,709 -1738,955l-4364 -7030c1619,-1100 3465,-2037 5557,-2800 2081,-764 4819,-1146 8193,-1146 4009,0 7165,799 9465,2400 2301,1610 3456,3810 3456,6630z"/>
 </g>
</svg>
