<?xml version="1.0" encoding="UTF-8"?>
<!DOCTYPE svg PUBLIC "-//W3C//DTD SVG 1.1//EN" "http://www.w3.org/Graphics/SVG/1.1/DTD/svg11.dtd">
<!-- Creator: CorelDRAW X7 -->
<svg xmlns="http://www.w3.org/2000/svg" xml:space="preserve" width="57.0853mm" height="57.1036mm" version="1.1" style="shape-rendering:geometricPrecision; text-rendering:geometricPrecision; image-rendering:optimizeQuality; fill-rule:evenodd; clip-rule:evenodd"
viewBox="0 0 351513 351626"
 xmlns:xlink="http://www.w3.org/1999/xlink">
 <defs>
  <style type="text/css">
   <![CDATA[
    .fil0 {fill:#05ABAB}
    .fil1 {fill:#FEFEFE}
   ]]>
  </style>
 </defs>
 <g id="Слой_x0020_1">
  <metadata id="CorelCorpID_0Corel-Layer"/>
  <path class="fil0" d="M255723 253084c-13028,0 -14855,-13658 0,-13658l10656 0c7034,0 9715,2719 9083,9745 -2500,5063 -14455,3913 -19739,3913zm-179579 -3829c-586,-11743 6443,-9829 19739,-9829 14953,0 12862,13658 0,13658 -11114,0 -14055,1393 -19739,-3829zm10415 -19480c-14885,0 -15020,-13666 0,-13666 5984,0 17099,-1740 19071,5000 3164,10819 -12570,8666 -19071,8666zm184491 -13212c6298,1909 6227,10441 477,12568 -3001,1110 -19363,1126 -22218,-186 -5759,-2648 -4283,-9917 1250,-12254 2564,-1083 17284,-1099 20491,-128zm-134130 -14609c1750,-1570 5895,-2164 9579,-2164 30557,0 21010,14000 7992,14000 -12692,0 -13141,1292 -18631,-4718l1060 -7118zm50529 10253c-1935,-1440 -1872,394 -2919,-3747 -3213,-12713 22710,-9178 29002,-6526l449 7187c-2352,7470 -22871,4910 -26532,3086zm8334 -22728c-15640,0 -15854,-13989 0,-13989 4329,0 22967,-1835 18325,9747 -2170,5409 -13009,4242 -18325,4242zm-59699 -9836c7009,-7222 23165,-4956 29388,-1328l-402 8336c-5741,3591 -7382,2899 -15916,2863 -13687,-56 -13169,-2728 -13070,-9871zm59699 -14471c-6222,0 -11019,-912 -11384,-6739 -555,-8862 10256,-7257 19376,-7257 14043,0 14507,13996 0,13996l-7992 0zm-58863 -2165c-1473,-6150 -1102,-6602 1971,-10897 39147,-4807 29812,13062 15600,13062 -8304,0 -11318,803 -17571,-2165zm-8243 -46467c2598,-9407 -17,-41979 831,-55253 471,-7380 2846,-8348 10331,-8348 91726,0 81931,-5907 81926,21650l335 41951c11276,0 17648,-1622 17646,11329l-7 62597c55268,0 57065,-4797 56962,14648 -87,16093 2669,61503 -1726,72491 -14184,1601 -18079,1123 -32592,1123 -14652,0 -13419,-11147 -6355,-13411 3754,-1203 21351,-590 26615,-579l386 -60272 -43283 0 0 64595c0,13535 -12418,9654 -38635,9666 -44660,20 -48673,3878 -48656,-12264 28,-27200 -3483,-31041 11443,-31041 13642,0 27001,-1899 34947,2986l439 26246 26494 -370 -26 -133797 -100256 142 285 137100c0,14620 -13921,15021 -13921,1332l7 -64595 -43283 0c-24,13579 -841,49067 495,60261 5265,0 23802,-758 27499,953 6816,3153 5853,13048 -7355,13048 -16475,101 -16916,1219 -32562,-1332 -1509,-3471 -2077,-4373 -2077,-9667 0,-14490 -2520,-65644 2413,-75931 9565,-2539 42962,-1332 54863,-1332l0 -63929c0,-11321 6693,-9997 16817,-9997zm-128292 71269c3416,54282 35893,110226 82004,137336 32465,19087 65181,28307 105292,26180 67412,-3574 128977,-50233 151929,-111621 28415,-75998 4750,-156392 -58120,-204204 -116654,-88715 -290762,-1197 -281105,152309z"/>
  <path class="fil1" d="M166562 249424l18790 0 -329 15303 -18775 0 314 -15303zm-23060 -182819l64593 0 9 49600 -64592 0 -10 -49600zm-14825 49935c-10124,0 -16817,-1324 -16817,9997l0 63929c-11901,0 -45298,-1207 -54863,1332 -4933,10287 -2413,61441 -2413,75931 0,5294 568,6196 2077,9667 15646,2551 16087,1433 32562,1332 13208,0 14171,-9895 7355,-13048 -3697,-1711 -22234,-953 -27499,-953 -1336,-11194 -519,-46682 -495,-60261l43283 0 -7 64595c0,13689 13921,13288 13921,-1332l-285 -137100 100256 -142 26 133797 -26494 370 -439 -26246c-7946,-4885 -21305,-2986 -34947,-2986 -14926,0 -11415,3841 -11443,31041 -17,16142 3996,12284 48656,12264 26217,-12 38635,3869 38635,-9666l0 -64595 43283 0 -386 60272c-5264,-11 -22861,-624 -26615,579 -7064,2264 -8297,13411 6355,13411 14513,0 18408,478 32592,-1123 4395,-10988 1639,-56398 1726,-72491 103,-19445 -1694,-14648 -56962,-14648l7 -62597c2,-12951 -6370,-11329 -17646,-11329l-335 -41951c5,-27557 9800,-21650 -81926,-21650 -7485,0 -9860,968 -10331,8348 -848,13274 1767,45846 -831,55253z"/>
  <path class="fil0" d="M168805 84081c593,-14779 13411,-14501 13996,0 5170,878 11423,720 11151,7784 -227,5910 -5002,6298 -11151,7038 -212,6568 -327,6143 -2994,10487l-8007 -410c-2715,-3998 -2798,-3439 -2995,-10077 -6248,-717 -11853,-1270 -11110,-7997 708,-6400 5887,-5939 11110,-6825zm-25293 32124l64592 0 -9 -49600 -64593 0 10 49600z"/>
  <path class="fil1" d="M168805 84081c-5223,886 -10402,425 -11110,6825 -743,6727 4862,7280 11110,7997 197,6638 280,6079 2995,10077l8007 410c2667,-4344 2782,-3919 2994,-10487 6149,-740 10924,-1128 11151,-7038 272,-7064 -5981,-6906 -11151,-7784 -585,-14501 -13403,-14779 -13996,0z"/>
  <path class="fil1" d="M187449 212207c3661,1824 24180,4384 26532,-3086l-449 -7187c-6292,-2652 -32215,-6187 -29002,6526 1047,4141 984,2307 2919,3747z"/>
  <path class="fil1" d="M136084 179643c-99,7143 -617,9815 13070,9871 8534,36 10175,728 15916,-2863l402 -8336c-6223,-3628 -22379,-5894 -29388,1328z"/>
  <path class="fil1" d="M195783 189479c5316,0 16155,1167 18325,-4242 4642,-11582 -13996,-9747 -18325,-9747 -15854,0 -15640,13989 0,13989z"/>
  <path class="fil1" d="M250559 216691c-5533,2337 -7009,9606 -1250,12254 2855,1312 19217,1296 22218,186 5750,-2127 5821,-10659 -477,-12568 -3207,-971 -17927,-955 -20491,128z"/>
  <path class="fil1" d="M195783 165172l7992 0c14507,0 14043,-13996 0,-13996 -9120,0 -19931,-1605 -19376,7257 365,5827 5162,6739 11384,6739z"/>
  <path class="fil1" d="M86559 229775c6501,0 22235,2153 19071,-8666 -1972,-6740 -13087,-5000 -19071,-5000 -15020,0 -14885,13666 0,13666z"/>
  <path class="fil1" d="M136920 163007c6253,2968 9267,2165 17571,2165 14212,0 23547,-17869 -15600,-13062 -3073,4295 -3444,4747 -1971,10897z"/>
  <path class="fil1" d="M136920 201954l-1060 7118c5490,6010 5939,4718 18631,4718 13018,0 22565,-14000 -7992,-14000 -3684,0 -7829,594 -9579,2164z"/>
  <path class="fil1" d="M255723 253084c5284,0 17239,1150 19739,-3913 632,-7026 -2049,-9745 -9083,-9745l-10656 0c-14855,0 -13028,13658 0,13658z"/>
  <path class="fil1" d="M76144 249255c5684,5222 8625,3829 19739,3829 12862,0 14953,-13658 0,-13658 -13296,0 -20325,-1914 -19739,9829z"/>
  <polygon class="fil0" points="166248,264727 185023,264727 185352,249424 166562,249424 "/>
 </g>
</svg>
