<?xml version="1.0" encoding="UTF-8"?>
<!DOCTYPE svg PUBLIC "-//W3C//DTD SVG 1.1//EN" "http://www.w3.org/Graphics/SVG/1.1/DTD/svg11.dtd">
<!-- Creator: CorelDRAW X7 -->
<svg xmlns="http://www.w3.org/2000/svg" xml:space="preserve" width="72.8985mm" height="63.2498mm" version="1.1" style="shape-rendering:geometricPrecision; text-rendering:geometricPrecision; image-rendering:optimizeQuality; fill-rule:evenodd; clip-rule:evenodd"
viewBox="0 0 305564 265120"
 xmlns:xlink="http://www.w3.org/1999/xlink">
 <defs>
  <style type="text/css">
   <![CDATA[
    .fil0 {fill:#05ABAB}
    .fil4 {fill:#A8E0E0}
    .fil5 {fill:#A9E2E2}
    .fil1 {fill:#D7282F}
    .fil2 {fill:#E5ECED}
    .fil3 {fill:#FEFEFE}
   ]]>
  </style>
 </defs>
 <g id="Слой_x0020_1">
  <metadata id="CorelCorpID_0Corel-Layer"/>
  <path class="fil0" d="M221930 22786c139,13037 4574,37728 -11777,37354 -15703,-360 -11205,-23677 -11183,-37583l-139394 0c58,13896 4402,37030 -11077,37581 -16481,588 -12043,-24157 -11872,-37265 -43804,-4343 -36106,4116 -36106,67643l257518 0c0,-65146 7867,-70786 -36109,-67730z"/>
  <path class="fil1" d="M248587 220941c-5206,-3852 -19798,-17846 -23934,-22865l7026 -7767 16830 15494c3482,-2522 25735,-27039 35886,-34185 3068,3167 5055,4102 6930,9113 -10447,6816 -36715,35670 -42738,40210zm-14704 -67866c-2635,3145 -5622,5006 -8369,6706 -2698,3457 -5301,6930 -9052,11255 -3743,12010 -6843,13116 -5279,29385l331 2940c1610,7484 4857,13295 7921,19213 9579,9008 15589,17698 36779,19149l1704 86c29641,-1615 55602,-27384 45377,-61089 -4110,-13547 -14757,-23979 -25810,-29338 -17853,-8655 -28639,-2378 -43602,1693z"/>
  <path class="fil2" d="M257918 241809l-1704 -86c-3407,10049 -14357,7837 -26867,7832 -23681,-10 -213414,989 -218861,-461 -2845,-757 -3517,-1573 -5483,-3394 -4616,-4274 -2581,105 -3527,-3537 -128,-489 -509,-514 -772,-763 -364,14608 855,22940 15720,23222l112908 -66c28735,0 87808,1238 114144,47 13179,-596 14597,-9455 14442,-22794z"/>
  <path class="fil2" d="M198970 22557c-22,13906 -4520,37223 11183,37583 16351,374 11916,-24317 11777,-37354 -107,-11425 827,-22987 -11733,-22771 -11981,206 -11209,12031 -11227,22542z"/>
  <path class="fil2" d="M36627 22873c-171,13108 -4609,37853 11872,37265 15479,-551 11135,-23685 11077,-37581 -43,-10501 678,-22204 -11128,-22548 -12768,-372 -11697,11286 -11821,22864z"/>
  <path class="fil3" d="M248587 220941c6023,-4540 32291,-33394 42738,-40210 -1875,-5011 -3862,-5946 -6930,-9113 -10151,7146 -32404,31663 -35886,34185l-16830 -15494 -7026 7767c4136,5019 18728,19013 23934,22865z"/>
  <polygon class="fil4" points="24829,127006 52855,127006 52878,107662 25056,107662 "/>
  <polygon class="fil4" points="70108,222732 93443,222849 98029,222144 98043,203747 93429,203361 70227,203361 "/>
  <polygon class="fil4" points="24989,222732 52855,222732 52855,203361 25056,203361 "/>
  <polygon class="fil4" points="24989,158920 52855,158920 52935,144363 52477,139542 25362,139534 25056,144370 "/>
  <polygon class="fil4" points="25056,190826 52855,190826 52896,176424 52718,171459 25219,171457 25056,176426 "/>
  <polygon class="fil4" points="160523,222623 188350,222732 188355,203361 165227,203277 160529,203784 "/>
  <polygon class="fil5" points="70188,190826 93446,190956 98041,190175 97935,171565 70356,171458 70227,176426 "/>
  <polygon class="fil4" points="115366,222724 143202,222468 143182,203553 138307,203361 120355,203333 115369,203503 "/>
  <path class="fil5" d="M70526 139520c-607,6046 -1310,13822 590,19444l26807 -214 -62 -19135 -27335 -95z"/>
  <polygon class="fil5" points="115366,190818 143220,190542 143051,171629 138307,171459 120355,171435 115411,171577 "/>
  <polygon class="fil5" points="160521,158787 188350,158920 188413,144366 188037,139508 160589,139865 "/>
  <polygon class="fil5" points="160522,190708 188350,190826 188385,176425 188176,171420 160559,171826 "/>
  <polygon class="fil0" points="115358,158921 143227,158592 142945,139683 138307,139536 120355,139512 115446,139648 "/>
  <polygon class="fil5" points="115366,126999 143254,126658 142813,107765 138307,107648 120355,107630 115494,107731 "/>
  <polygon class="fil5" points="206264,126961 233536,127049 233652,112300 232959,107583 205680,108086 "/>
  <polygon class="fil5" points="160969,126990 188226,127038 187895,107602 160542,107897 "/>
  <polygon class="fil5" points="70959,127060 97959,126781 97772,107707 70254,107632 "/>
  <path class="fil4" d="M225514 159781c2747,-1700 5734,-3561 8369,-6706l-770 -13533 -27281 -4 -142 19382c6065,0 15438,-1011 19824,861z"/>
  <path class="fil4" d="M219435 222574c-3064,-5918 -6311,-11729 -7921,-19213l-5820 0 -4 19395 13745 -182z"/>
  <path class="fil4" d="M211183 200421c-1564,-16269 1536,-17375 5279,-29385l-10698 422 -74 19368 4095 0 1398 9595z"/>
 </g>
</svg>
