<?xml version="1.0" encoding="UTF-8"?>
<!DOCTYPE svg PUBLIC "-//W3C//DTD SVG 1.1//EN" "http://www.w3.org/Graphics/SVG/1.1/DTD/svg11.dtd">
<!-- Creator: CorelDRAW X7 -->
<svg xmlns="http://www.w3.org/2000/svg" xml:space="preserve" width="69.8966mm" height="69.8763mm" version="1.1" style="shape-rendering:geometricPrecision; text-rendering:geometricPrecision; image-rendering:optimizeQuality; fill-rule:evenodd; clip-rule:evenodd"
viewBox="0 0 3668810 3667745"
 xmlns:xlink="http://www.w3.org/1999/xlink">
 <defs>
  <style type="text/css">
   <![CDATA[
    .fil0 {fill:#05ABAB}
    .fil4 {fill:#58C7C7}
    .fil5 {fill:#78D2D2}
    .fil3 {fill:#FAFDFD}
    .fil2 {fill:#FCFEFE}
    .fil1 {fill:#FEFEFE}
   ]]>
  </style>
 </defs>
 <g id="Слой_x0020_1">
  <metadata id="CorelCorpID_0Corel-Layer"/>
  <path class="fil0" d="M994160 2797475l69926 -1915 3049 214003 126709 5532 1176 -211967c35976,-12975 34721,-10503 70492,-3380l2389 194604c7632,40679 47019,3448 34391,72860l-304128 4110 -4004 -273847zm1489068 211752c-29383,16922 -8592,24082 -27856,58809l-60813 10 -1685 -266524c70304,-13395 70031,-7416 146066,-6876 93977,0 148004,31195 131391,134262 -14697,91153 -91824,80319 -187103,80319zm-777143 57113l-2771 -267484 68519 -4283 5333 104868 125428 -982 3690 -99776 66246 -2310c12110,38475 8399,236894 1685,273180l-65113 -111 -5275 -110578 -128635 -4714c-37,84744 25683,133469 -69107,112190zm339447 -267741c45792,-9128 239555,-10955 277463,2398l913 42349 -96842 8671 -6824 211982 -68220 5974 -4462 -216455 -100590 -6036 -1438 -48883zm-601110 54951l315 48090c41550,4719 159750,-16219 162784,28806 2693,40034 -24092,31724 -61234,32029 -33215,268 -64357,-1606 -98144,184l-3963 49355c41482,4231 79936,2068 120631,1774 52221,-383 68335,-5464 59806,51009 -72220,14408 -128725,7265 -209248,6918 -62006,-273 -44390,10304 -44390,-235219 0,-62200 47329,-42243 211536,-42243 43797,0 49765,2750 43487,49040 -43686,14928 -124362,3396 -181580,10257zm-66924 -185591l-12792 6193c-41744,11511 -262886,6682 -287204,-519 -20670,-49414 6823,-37420 25861,-65853 65800,-98276 -52363,-210298 229514,-206902 50704,614 53360,2772 54064,53807 782,56956 15348,172112 -9443,213274zm895937 5201c-91589,29525 -65439,-54830 -65444,-133805 -5,-91069 -29220,-148549 66168,-134419l9763 100369 121659 1706c20130,-70178 -28102,-118001 72493,-101844 10209,27782 13075,192062 7369,236358l-8335 31966c-94512,29231 -55229,-42889 -70157,-111933l-122767 813c-5752,44474 3942,77306 -10749,110789zm-357472 -166994l129627 -635c21,-49072 -17043,-128903 53565,-103157 34701,12650 19962,103167 20014,146272 58,50526 16020,122808 -27305,131107 -70130,13432 -40311,-59161 -49507,-116941l-122195 -1102c-11081,57617 17967,117875 -40726,118898 -57623,1008 -37719,-74938 -37646,-131968 74,-55964 -11253,-129370 15196,-144376 70955,-40265 59098,61207 58977,101902zm715836 172826l-52174 -3281c-14734,-75789 -11280,-193963 -1670,-271830l58961 -945c17600,59344 3633,135674 8257,197501 20523,-34575 45062,-71685 67050,-110595 25221,-44642 32763,-87993 96007,-87993 65796,0 45608,19857 45608,230364 0,73921 -63790,57707 -71563,18303 -4378,-22197 178,-119617 -599,-151011l-10267 10540c-1007,1213 -3564,3884 -4760,5396l-18755 28927c-48043,86203 -52447,134624 -116095,134624zm384582 -77532c41997,-66666 76650,-141311 119833,-197516 99976,-9097 89762,-28717 87510,219939 -719,79070 -62620,71123 -72084,27373 -4976,-22984 342,-123653 -1480,-157950 -25053,27615 -62115,105986 -84969,145154 -19930,34154 -28512,45392 -80928,41902 -64745,-4310 -40658,-49072 -42705,-197176 -609,-44075 -11175,-80728 34239,-82848 68771,-3223 25315,74209 40584,201122zm-1489583 77532c-73018,0 -53565,-2478 -53565,-232496 0,-67422 66000,-62472 72178,-10198 4645,39335 -1281,114153 262,159325 46448,-48636 77023,-143080 121806,-192629 109456,-4210 87458,-23563 87458,229219 0,52316 -19306,57891 -63827,39582 -18130,-42112 -6147,-123134 -8425,-177565 -23641,28544 -44127,67160 -62593,101189 -23662,43623 -31546,83573 -93294,83573zm-965716 -55980l9291 21c89032,247 41739,-37692 94444,-47440 21636,-4004 -6199,-2614 15395,-31 18224,2183 14602,3328 23378,8640 17458,79363 -73883,95934 -142508,95934 -105765,0 -149058,-35519 -148953,-140792 126,-125097 56231,-138518 167529,-138518 76792,0 128383,22738 121240,102469 -89857,12403 -43052,-6619 -84986,-37241 -24082,-17584 -85504,-16765 -110505,-745 -24916,15972 -65879,157372 55675,157703zm197811 -219971l61428 -987c44374,56935 17977,116709 118499,114578 37215,-76308 13065,-125632 109760,-111801 3727,37272 -42936,153210 -58478,192335 -15710,39562 -24665,55954 -59029,70672 -33724,14440 -83920,15636 -112663,4414 -10676,-25237 -8251,-14030 -4892,-48132 68661,-13401 68813,18759 106669,-38386 -35121,-30800 -78729,-8655 -114726,-58651 -21888,-30396 -48694,-84996 -46568,-124042zm2259299 -90040c70052,4713 15736,16461 60735,20807 42879,4146 1648,-15847 67564,-20896 -4152,48001 -8912,65706 -60079,67322 -55455,1748 -65674,-16907 -68220,-67233zm-1013019 -37735c-24691,21978 -260928,14603 -302332,5433 -11022,-115324 11632,43881 56295,-158307 25504,-115450 79127,-118678 205311,-115497 56310,1422 53019,2273 52804,57880 -147,37540 12545,184079 -12078,210491zm-434835 -258524c27257,-13044 33425,-13070 61485,-578 13180,37677 6016,104065 6231,151783 226,51597 17237,118909 -37042,119061 -54284,158 -37351,-67852 -37120,-119061 215,-47460 -7301,-113072 6446,-151205zm-715227 265763c-11873,-36911 32238,-186830 52053,-223683 32150,-59785 174831,-69773 232711,-42206 17032,50311 6004,137768 6519,198419 325,38023 7411,65176 -30087,71511 -50479,8519 -43918,-27226 -44028,-66629 -189837,-6845 -114447,8099 -155861,52562 -16760,17988 -33850,14482 -61307,10026zm1318379 -269133l5748 97551 129055 3039c2556,-79610 -22634,-120903 69485,-100779 7464,35000 8907,190672 5800,230322 -2793,35577 5590,27137 -17668,39666 -77138,41556 -57218,-111014 -57308,-115066l-130083 871c-809,69144 12235,98716 -16624,114316 -79673,43062 -56599,-110930 -58021,-209006 -950,-65381 -2908,-77647 69616,-60914zm730570 2562c17337,47723 4792,130745 8062,189690 40349,-45372 79448,-144839 117801,-194603 109671,-6189 91122,1999 90114,91682 -446,39577 4598,113975 84,148728 -6225,47933 -63239,52684 -71249,893 -4582,-29615 100,-116595 178,-152103 -27834,27520 -47838,74870 -71385,116494 -24838,43897 -38469,85715 -111948,68535 -44905,-10493 -26633,-107734 -26749,-154481 -173,-72960 -22738,-148365 65092,-114835zm-429104 -4441l61082 -1171 4865 195549c30937,-27342 88497,-150744 119261,-193990 99304,-13935 97231,-38269 91310,222145 -1821,80072 -62551,60194 -71291,26008 -5894,-23064 -199,-120436 -3280,-156087 -71916,81957 -65192,177198 -147715,183103 -81663,5842 -60405,-34307 -59780,-109817 446,-54510 -5989,-112700 5548,-165740zm-1821015 -4840c195926,-209 126089,104223 124661,134719 -1223,26245 31714,67837 5402,110117 -28245,45393 -286843,72561 -269222,-55707 78518,-35535 20964,34486 148444,34486 47198,0 55429,288 57512,-47409l-104873 -12896 -1438 -39162c42936,-24492 60578,4162 103572,-25410l-1549 -27924c-16838,-10425 -34359,-15684 -62509,-15658 -73081,63 -41781,8335 -76036,31252 -27168,18182 -59879,21862 -61181,-16487 -1879,-55528 76949,-69852 137217,-69921zm748762 133417c20224,48831 92717,106139 90806,142975 -111565,14493 -76324,-42117 -144030,-87184 -53801,85353 -63994,95525 -132991,87405 -1995,-37267 68839,-95100 89683,-143196 -26266,-42112 -76178,-85200 -87914,-131034 97886,-3364 82932,25694 132115,76157 68073,-32916 16360,-80849 140670,-76094 -10461,53954 -61008,85558 -88339,130971zm1517434 -220312c47907,2320 19563,5805 55235,23195 52006,-12666 1312,-22382 63128,-22886 15327,94355 -137642,91904 -118363,-309zm-1363000 -1366717c120032,-131239 373880,-215987 604548,-125181 455585,179355 489188,746232 160376,1003282 -72199,56441 -162349,106595 -276324,122436 -109456,15211 -267395,-908 -341620,-53444 225225,27535 352774,-331 490217,-122605 101246,-90071 192908,-269458 160254,-473394 -42059,-262676 -286228,-447826 -549703,-430006 -126278,8545 -157546,43760 -247748,78912zm514446 1036319l6167 15573c-58636,10629 -124299,40060 -194645,47582 -318699,34065 -618401,-148796 -728817,-439612 -50222,-132273 -61528,-269332 -30654,-413095 52894,-246300 235278,-421377 447449,-499964 269757,-99913 579107,5191 715112,157809 -99919,-41126 -146377,-84266 -286507,-98076 -542422,-53471 -929188,609146 -495759,1060505 127081,132346 314289,207091 567654,169278zm-2061736 429996c44086,435434 282853,932201 624263,1199318 205658,160900 295157,238332 579013,340046 240542,86192 521710,128719 801120,100207 278817,-28449 491687,-107592 702515,-217599 102301,-53382 193952,-120688 272497,-182563l176269 -167303c361156,-403516 549818,-869073 493445,-1440086 -35231,-356874 -186751,-719705 -401505,-972697l-111272 -120751c-369460,-390944 -928622,-605383 -1495614,-549021 -946647,94108 -1749132,939750 -1640731,2010449z"/>
  <path class="fil1" d="M2077750 1604933l-6167 -15573c-253365,37813 -440573,-36932 -567654,-169278 -433429,-451359 -46663,-1113976 495759,-1060505 140130,13810 186588,56950 286507,98076 -136005,-152618 -445355,-257722 -715112,-157809 -212171,78587 -394555,253664 -447449,499964 -30874,143763 -19568,280822 30654,413095 110416,290816 410118,473677 728817,439612 70346,-7522 136009,-36953 194645,-47582z"/>
  <path class="fil1" d="M1557137 553041c90202,-35152 121470,-70367 247748,-78912 263475,-17820 507644,167330 549703,430006 32654,203936 -59008,383323 -160254,473394 -137443,122274 -264992,150140 -490217,122605 74225,52536 232164,68655 341620,53444 113975,-15841 204125,-65995 276324,-122436 328812,-257050 295209,-823927 -160376,-1003282 -230668,-90806 -484516,-6058 -604548,125181z"/>
  <path class="fil2" d="M1942417 2066118l-976 161777 -125890 1821c-577,-29929 13259,-92365 22891,-121433 16990,-51298 45539,-49797 103975,-42165zm62756 209148c24623,-26412 11931,-172951 12078,-210491 215,-55607 3506,-56458 -52804,-57880 -126184,-3181 -179807,47 -205311,115497 -44663,202188 -67317,42983 -56295,158307 41404,9170 277641,16545 302332,-5433z"/>
  <path class="fil2" d="M2631799 2678992c63648,0 68052,-48421 116095,-134624l18755 -28927c1196,-1512 3753,-4183 4760,-5396l10267 -10540c777,31394 -3779,128814 599,151011 7773,39404 71563,55618 71563,-18303 0,-210507 20188,-230364 -45608,-230364 -63244,0 -70786,43351 -96007,87993 -21988,38910 -46527,76020 -67050,110595 -4624,-61827 9343,-138157 -8257,-197501l-58961 945c-9610,77867 -13064,196041 1670,271830l52174 3281z"/>
  <path class="fil2" d="M3016381 2601460c-15269,-126913 28187,-204345 -40584,-201122 -45414,2120 -34848,38773 -34239,82848 2047,148104 -22040,192866 42705,197176 52416,3490 60998,-7748 80928,-41902 22854,-39168 59916,-117539 84969,-145154 1822,34297 -3496,134966 1480,157950 9464,43750 71365,51697 72084,-27373 2252,-248656 12466,-229036 -87510,-219939 -43183,56205 -77836,130850 -119833,197516z"/>
  <path class="fil2" d="M1526798 2678992c61748,0 69632,-39950 93294,-83573 18466,-34029 38952,-72645 62593,-101189 2278,54431 -9705,135453 8425,177565 44521,18309 63827,12734 63827,-39582 0,-252782 21998,-233429 -87458,-229219 -44783,49549 -75358,143993 -121806,192629 -1543,-45172 4383,-119990 -262,-159325 -6178,-52274 -72178,-57224 -72178,10198 0,230018 -19453,232496 53565,232496z"/>
  <path class="fil1" d="M1182118 2621952c2771,-31977 15652,-92848 25924,-122940 17699,-51886 48143,-45330 103582,-41283l-1527 163677 -127979 546zm195380 46007c24791,-41162 10225,-156318 9443,-213274 -704,-51035 -3360,-53193 -54064,-53807 -281877,-3396 -163714,108626 -229514,206902 -19038,28433 -46531,16439 -25861,65853 24318,7201 245460,12030 287204,519l12792 -6193z"/>
  <path class="fil2" d="M2904060 2015934c-87830,-33530 -65265,41875 -65092,114835 116,46747 -18156,143988 26749,154481 73479,17180 87110,-24638 111948,-68535 23547,-41624 43551,-88974 71385,-116494 -78,35508 -4760,122488 -178,152103 8010,51791 65024,47040 71249,-893 4514,-34753 -530,-109151 -84,-148728 1008,-89683 19557,-97871 -90114,-91682 -38353,49764 -77452,149231 -117801,194603 -3270,-58945 9275,-141967 -8062,-189690z"/>
  <path class="fil2" d="M2474956 2011493c-11537,53040 -5102,111230 -5548,165740 -625,75510 -21883,115659 59780,109817 82523,-5905 75799,-101146 147715,-183103 3081,35651 -2614,133023 3280,156087 8740,34186 69470,54064 71291,-26008 5921,-260414 7994,-236080 -91310,-222145 -30764,43246 -88324,166648 -119261,193990l-4865 -195549 -61082 1171z"/>
  <path class="fil2" d="M1072757 2063195l-578 98810 -118893 851c16729,-92381 23846,-100233 119471,-99661zm-217646 219310c27457,4456 44547,7962 61307,-10026 41414,-44463 -33976,-59407 155861,-52562 110,39403 -6451,75148 44028,66629 37498,-6335 30412,-33488 30087,-71511 -515,-60651 10513,-148108 -6519,-198419 -57880,-27567 -200561,-17579 -232711,42206 -19815,36853 -63926,186772 -52053,223683z"/>
  <path class="fil2" d="M1444422 2853550c57218,-6861 137894,4671 181580,-10257 6278,-46290 310,-49040 -43487,-49040 -164207,0 -211536,-19957 -211536,42243 0,245523 -17616,234946 44390,235219 80523,347 137028,7490 209248,-6918 8529,-56473 -7585,-51392 -59806,-51009 -40695,294 -79149,2457 -120631,-1774l3963 -49355c33787,-1790 64929,84 98144,-184 37142,-305 63927,8005 61234,-32029 -3034,-45025 -121234,-24087 -162784,-28806l-315 -48090z"/>
  <path class="fil2" d="M516724 2076574c1302,38349 34013,34669 61181,16487 34255,-22917 2955,-31189 76036,-31252 28150,-26 45671,5233 62509,15658l1549 27924c-42994,29572 -60636,918 -103572,25410l1438 39162 104873 12896c-2083,47697 -10314,47409 -57512,47409 -127480,0 -69926,-70021 -148444,-34486 -17621,128268 240977,101100 269222,55707 26312,-42280 -6625,-83872 -5402,-110117 1428,-30496 71265,-134928 -124661,-134719 -60268,69 -139096,14393 -137217,69921z"/>
  <path class="fil1" d="M1915963 2506166c121,-40695 11978,-142167 -58977,-101902 -26449,15006 -15122,88412 -15196,144376 -73,57030 -19977,132976 37646,131968 58693,-1023 29645,-61281 40726,-118898l122195 1102c9196,57780 -20623,130373 49507,116941 43325,-8299 27363,-80581 27305,-131107 -52,-43105 14687,-133622 -20014,-146272 -70608,-25746 -53544,54085 -53565,103157l-129627 635z"/>
  <path class="fil2" d="M2173490 2013372c-72524,-16733 -70566,-4467 -69616,60914 1422,98076 -21652,252068 58021,209006 28859,-15600 15815,-45172 16624,-114316l130083 -871c90,4052 -19830,156622 57308,115066 23258,-12529 14875,-4089 17668,-39666 3107,-39650 1664,-195322 -5800,-230322 -92119,-20124 -66929,21169 -69485,100779l-129055 -3039 -5748 -97551z"/>
  <path class="fil1" d="M998164 3071322l304128 -4110c12628,-69412 -26759,-32181 -34391,-72860l-2389 -194604c-35771,-7123 -34516,-9595 -70492,3380l-1176 211967 -126709 -5532 -3049 -214003 -69926 1915 4004 273847z"/>
  <path class="fil1" d="M2273435 2673160c14691,-33483 4997,-66315 10749,-110789l122767 -813c14928,69044 -24355,141164 70157,111933l8335 -31966c5706,-44296 2840,-208576 -7369,-236358 -100595,-16157 -52363,31666 -72493,101844l-121659 -1706 -9763 -100369c-95388,-14130 -66173,43350 -66168,134419 5,78975 -26145,163330 65444,133805z"/>
  <path class="fil1" d="M1706085 3066340c94790,21279 69070,-27446 69107,-112190l128635 4714 5275 110578 65113 111c6714,-36286 10425,-234705 -1685,-273180l-66246 2310 -3690 99776 -125428 982 -5333 -104868 -68519 4283 2771 267484z"/>
  <path class="fil2" d="M2565069 2944602c-14492,22586 -71448,13648 -101256,11690 -5144,-36648 -7527,-71905 3327,-106795l71800 -1422c40931,5501 12403,1050 23269,11973 23216,1679 36616,89 36543,41314 -69,37593 -9763,36931 -33683,43240zm-81841 64625c95279,0 172406,10834 187103,-80319 16613,-103067 -37414,-134262 -131391,-134262 -76035,-540 -75762,-6519 -146066,6876l1685 266524 60813 -10c19264,-34727 -1527,-41887 27856,-58809z"/>
  <path class="fil2" d="M561082 2623012c-121554,-331 -80591,-141731 -55675,-157703 25001,-16020 86423,-16839 110505,745 41934,30622 -4871,49644 84986,37241 7143,-79731 -44448,-102469 -121240,-102469 -111298,0 -167403,13421 -167529,138518 -105,105273 43188,140792 148953,140792 68625,0 159966,-16571 142508,-95934 -8776,-5312 -5154,-6457 -23378,-8640 -21594,-2583 6241,-3973 -15395,31 -52705,9748 -5412,47687 -94444,47440l-9291 -21z"/>
  <path class="fil2" d="M1402703 2140070c27331,-45413 77878,-77017 88339,-130971 -124310,-4755 -72597,43178 -140670,76094 -49183,-50463 -34229,-79521 -132115,-76157 11736,45834 61648,88922 87914,131034 -20844,48096 -91678,105929 -89683,143196 68997,8120 79190,-2052 132991,-87405 67706,45067 32465,101677 144030,87184 1911,-36836 -70582,-94144 -90806,-142975z"/>
  <path class="fil2" d="M820321 2402054l-61428 987c-2126,39046 24680,93646 46568,124042 35997,49996 79605,27851 114726,58651 -37856,57145 -38008,24985 -106669,38386 -3359,34102 -5784,22895 4892,48132 28743,11222 78939,10026 112663,-4414 34364,-14718 43319,-31110 59029,-70672 15542,-39125 62205,-155063 58478,-192335 -96695,-13831 -72545,35493 -109760,111801 -100522,2131 -74125,-57643 -118499,-114578z"/>
  <path class="fil3" d="M2227066 2852017l96842 -8671 -913 -42349c-37908,-13353 -231671,-11526 -277463,-2398l1438 48883 100590 6036 4462 216455 68220 -5974 6824 -211982z"/>
  <path class="fil1" d="M1570338 2016742c-13747,38133 -6231,103745 -6446,151205 -231,51209 -17164,119219 37120,119061 54279,-152 37268,-67464 37042,-119061 -215,-47718 6949,-114106 -6231,-151783 -28060,-12492 -34228,-12466 -61485,578z"/>
  <path class="fil0" d="M1182118 2621952l127979 -546 1527 -163677c-55439,-4047 -85883,-10603 -103582,41283 -10272,30092 -23153,90963 -25924,122940z"/>
  <path class="fil0" d="M1942417 2066118c-58436,-7632 -86985,-9133 -103975,42165 -9632,29068 -23468,91504 -22891,121433l125890 -1821 976 -161777z"/>
  <path class="fil0" d="M2565069 2944602c23920,-6309 33614,-5647 33683,-43240 73,-41225 -13327,-39635 -36543,-41314l-92318 -578 16 90030 95162 -4898z"/>
  <path class="fil0" d="M1072757 2063195c-95625,-572 -102742,7280 -119471,99661l118893 -851 578 -98810z"/>
  <path class="fil3" d="M3078927 2333808c-44999,-4346 9317,-16094 -60735,-20807 2546,50326 12765,68981 68220,67233 51167,-1616 55927,-19321 60079,-67322 -65916,5049 -24685,25042 -67564,20896z"/>
  <path class="fil3" d="M2975372 1942953c-35672,-17390 -7328,-20875 -55235,-23195 -19279,92213 133690,94664 118363,309 -61816,504 -11122,10220 -63128,22886z"/>
  <path class="fil4" d="M2565069 2944602l-95162 4898 -16 -90030 92318 578c-10866,-10923 17662,-6472 -23269,-11973l-71800 1422c-10854,34890 -8471,70147 -3327,106795 29808,1958 86764,10896 101256,-11690z"/>
  <polygon class="fil5" points="2071583,1589360 2077750,1604933 "/>
 </g>
</svg>
