<?xml version="1.0" encoding="UTF-8"?>
<!DOCTYPE svg PUBLIC "-//W3C//DTD SVG 1.1//EN" "http://www.w3.org/Graphics/SVG/1.1/DTD/svg11.dtd">
<!-- Creator: CorelDRAW X7 -->
<svg xmlns="http://www.w3.org/2000/svg" xml:space="preserve" width="34.1754mm" height="14.5283mm" version="1.1" style="shape-rendering:geometricPrecision; text-rendering:geometricPrecision; image-rendering:optimizeQuality; fill-rule:evenodd; clip-rule:evenodd"
viewBox="0 0 62904 26741"
 xmlns:xlink="http://www.w3.org/1999/xlink">
 <defs>
  <style type="text/css">
   <![CDATA[
    .fil0 {fill:#05ABAB;fill-rule:nonzero}
   ]]>
  </style>
 </defs>
 <g id="Слой_x0020_1">
  <metadata id="CorelCorpID_0Corel-Layer"/>
  <path class="fil0" d="M19270 5649l-1504 0 0 -4335 -1358 0 0 -1228 4216 0 0 1228 -1354 0 0 4335zm2149 -5563l1400 0 0 2545c0,114 -1,235 -4,360 -2,126 -6,249 -11,371 -5,122 -11,238 -18,347 -8,109 -17,205 -28,288l31 0 2290 -3911 1723 0 0 5563 -1404 0 0 -2409c0,-104 3,-222 7,-353 4,-133 9,-268 14,-408 7,-139 14,-274 24,-403 9,-129 18,-242 28,-338l-34 0 -2290 3911 -1728 0 0 -5563zm9062 1146c-178,0 -336,38 -475,113 -140,76 -259,185 -357,328 -100,142 -176,317 -228,522 -51,205 -77,437 -77,697 0,352 44,648 133,887 89,240 224,421 406,543 180,123 409,184 683,184 248,0 487,-35 717,-102 229,-69 460,-152 694,-248l0 1271c-246,109 -498,187 -756,235 -257,48 -531,73 -819,73 -604,0 -1099,-121 -1482,-361 -384,-241 -667,-574 -849,-1002 -181,-427 -271,-923 -271,-1488 0,-422 58,-809 176,-1160 118,-350 291,-655 520,-914 228,-257 510,-457 846,-598 337,-142 721,-212 1155,-212 269,0 552,31 850,94 298,62 589,160 873,298l-461 1183c-203,-96 -408,-178 -615,-244 -208,-65 -429,-99 -663,-99zm4708 2391l-1100 2026 -1705 0 1526 -2434c-152,-85 -295,-196 -428,-329 -133,-136 -240,-298 -322,-490 -80,-191 -122,-413 -122,-668 0,-542 190,-951 568,-1228 378,-277 944,-414 1700,-414l1845 0 0 5563 -1503 0 0 -2026 -459 0zm459 -2400l-319 0c-208,0 -367,30 -479,90 -112,60 -188,132 -230,221 -43,87 -64,175 -64,263 0,261 76,443 225,544 149,102 345,152 586,152l281 0 0 -1270zm7420 4426l-1515 0 0 -2057c-342,117 -653,201 -931,255 -276,53 -540,80 -788,80 -523,0 -934,-130 -1231,-388 -299,-259 -447,-626 -447,-1100l0 -2353 1514 0 0 1854c0,249 50,438 150,566 100,128 279,193 535,193 157,0 336,-21 536,-64 200,-42 421,-107 662,-196l0 -2353 1515 0 0 5563zm1198 0l0 -5563 1511 0 0 5563 -1511 0zm-39990 5416c0,369 -113,664 -336,885 -225,222 -549,368 -973,442l0 30c515,45 898,182 1147,415 251,233 375,535 375,906 0,326 -89,616 -268,868 -178,252 -442,449 -790,591 -347,142 -774,214 -1282,214 -481,0 -897,-28 -1245,-83 -349,-56 -640,-129 -874,-217l0 -1295c154,77 335,142 539,196 204,55 411,98 622,126 210,29 400,44 570,44 431,0 736,-46 916,-139 179,-92 267,-240 267,-445 0,-188 -106,-330 -321,-423 -214,-94 -533,-141 -957,-141l-654 0 0 -1218 585 0c320,0 564,-17 733,-53 169,-35 284,-90 344,-161 61,-72 92,-162 92,-272 0,-133 -62,-236 -184,-310 -124,-74 -330,-112 -618,-112 -232,0 -460,32 -687,94 -228,62 -443,161 -646,295l-631 -1035c210,-137 423,-248 639,-335 216,-86 453,-150 712,-190 258,-40 559,-61 901,-61 418,0 779,60 1083,179 303,120 535,283 697,490 163,208 244,445 244,715zm4593 4265l-274 -1036 -1808 0 -281 1036 -1652 0 1815 -5563 2005 0 1837 5563 -1642 0zm-586 -2269l-240 -909c-25,-98 -63,-239 -111,-422 -48,-183 -96,-371 -143,-567 -46,-196 -83,-357 -107,-483 -24,126 -56,281 -98,467 -41,186 -84,369 -130,551 -44,182 -81,334 -115,454l-239 909 1183 0zm7670 -3294l0 4331 759 0 0 2962 -1465 0 0 -1730 -3241 0 0 1730 -1465 0 0 -2962 461 0c173,-292 329,-606 468,-941 140,-335 262,-686 367,-1054 105,-368 193,-748 259,-1139 67,-392 117,-791 146,-1197l3711 0zm-1516 1228l-988 0c-26,272 -62,540 -110,805 -48,265 -110,528 -181,786 -73,260 -156,514 -249,765 -95,252 -200,500 -316,747l1844 0 0 -3103zm8223 1551c0,430 -52,821 -154,1172 -103,352 -264,655 -482,910 -218,253 -497,448 -840,584 -343,136 -752,204 -1229,204 -467,0 -871,-68 -1211,-204 -342,-136 -623,-330 -843,-583 -221,-253 -385,-556 -491,-909 -107,-353 -160,-747 -160,-1181 0,-579 95,-1083 287,-1511 191,-428 487,-760 888,-995 402,-235 913,-352 1538,-352 634,0 1149,118 1545,355 398,236 689,568 874,998 185,429 278,933 278,1512zm-3828 1c0,335 39,624 114,865 77,241 197,427 362,557 165,130 381,195 647,195 277,0 496,-65 660,-195 163,-130 282,-316 353,-557 73,-241 109,-530 109,-865 0,-504 -83,-903 -250,-1195 -168,-292 -456,-439 -864,-439 -272,0 -491,67 -657,199 -166,132 -286,321 -361,565 -76,244 -113,534 -113,870zm4832 -2780l1940 0c804,0 1378,119 1720,357 342,239 514,582 514,1027 0,244 -44,451 -131,621 -89,170 -199,304 -332,402 -133,99 -270,167 -409,203l0 38c152,37 304,101 455,188 151,87 277,218 376,392 101,174 151,409 151,707 0,336 -86,627 -257,871 -171,243 -416,430 -732,561 -317,131 -694,196 -1130,196l-2165 0 0 -5563zm1503 2133l453 0c248,0 423,-50 524,-153 102,-103 152,-227 152,-375 0,-152 -57,-268 -172,-348 -116,-79 -294,-120 -535,-120l-422 0 0 996zm0 1100l0 1169 528 0c262,0 444,-56 548,-169 104,-113 156,-254 156,-424 0,-99 -22,-193 -66,-281 -44,-87 -120,-158 -226,-213 -107,-54 -255,-82 -442,-82l-498 0zm8952 -454c0,430 -52,821 -154,1172 -103,352 -264,655 -482,910 -218,253 -497,448 -840,584 -343,136 -752,204 -1229,204 -467,0 -871,-68 -1211,-204 -342,-136 -623,-330 -843,-583 -221,-253 -385,-556 -491,-909 -107,-353 -160,-747 -160,-1181 0,-579 95,-1083 287,-1511 191,-428 487,-760 888,-995 402,-235 913,-352 1538,-352 634,0 1149,118 1545,355 398,236 689,568 874,998 185,429 278,933 278,1512zm-3828 1c0,335 39,624 114,865 77,241 198,427 363,557 164,130 380,195 646,195 277,0 496,-65 660,-195 164,-130 282,-316 353,-557 73,-241 109,-530 109,-865 0,-504 -83,-903 -250,-1195 -168,-292 -456,-439 -864,-439 -271,0 -491,67 -657,199 -166,132 -286,321 -361,565 -75,244 -113,534 -113,870zm9568 2783l-1510 0 0 -4335 -1061 0c-18,209 -42,443 -73,704 -30,261 -64,527 -100,801 -38,273 -75,535 -117,787 -40,252 -82,472 -124,660 -67,308 -164,571 -293,790 -127,219 -301,387 -522,503 -220,117 -505,176 -853,176 -112,0 -215,-8 -311,-24 -97,-14 -189,-35 -278,-59l0 -1161c68,23 132,41 190,54 59,14 120,22 182,22 85,0 159,-24 224,-72 65,-48 124,-155 181,-317 58,-163 115,-413 171,-752 19,-109 46,-272 79,-490 34,-217 70,-474 113,-772 41,-298 84,-623 128,-976 45,-353 89,-720 132,-1102l3842 0 0 5563zm4505 0l-3302 0 0 -5563 3302 0 0 1206 -1800 0 0 875 1666 0 0 1207 -1666 0 0 1051 1800 0 0 1224zm5742 0l-1511 0 0 -2267 -1746 0 0 2267 -1511 0 0 -5563 1511 0 0 2063 1746 0 0 -2063 1511 0 0 5563zm1202 -5563l1400 0 0 2545c0,114 -1,235 -4,360 -2,126 -6,249 -11,371 -6,122 -11,238 -19,347 -7,109 -17,205 -27,288l31 0 2290 -3911 1723 0 0 5563 -1404 0 0 -2409c0,-104 3,-222 7,-353 4,-133 9,-268 14,-408 6,-139 14,-274 23,-403 9,-129 18,-242 29,-338l-34 0 -2291 3911 -1727 0 0 -5563zm11596 5563l-1739 0 -1085 -1739 -1072 1739 -1700 0 1845 -2847 -1735 -2716 1666 0 1004 1719 966 -1719 1717 0 -1762 2835 1895 2728zm-54316 9681l0 -5563 4558 0 0 5563 -1514 0 0 -4335 -1534 0 0 4335 -1510 0zm9170 0l-274 -1036 -1808 0 -281 1036 -1652 0 1815 -5563 2005 0 1837 5563 -1642 0zm-586 -2269l-240 -909c-25,-98 -63,-239 -111,-422 -48,-183 -96,-371 -143,-567 -46,-196 -83,-357 -107,-483 -24,126 -56,281 -98,467 -41,186 -84,369 -130,551 -44,182 -81,334 -115,454l-239 909 1183 0zm8563 1037l0 2962 -1465 0 0 -1730 -4268 0 0 -5563 1510 0 0 4331 1544 0 0 -4331 1512 0 0 4331 1167 0zm742 1232l0 -5563 1510 0 0 5563 -1510 0zm5300 -4409c-171,0 -324,21 -463,63 -137,40 -260,105 -363,192 -104,88 -189,199 -255,332 -66,134 -112,294 -136,479l2206 0 0 1146 -2206 0c11,163 46,309 102,438 56,127 134,235 235,323 102,88 229,156 380,201 150,46 324,69 523,69 299,0 571,-30 818,-91 246,-61 505,-140 779,-236l0 1244c-223,99 -481,179 -776,241 -294,63 -604,94 -931,94 -630,0 -1143,-118 -1542,-356 -397,-236 -692,-567 -880,-995 -190,-427 -283,-927 -283,-1503 0,-417 58,-802 173,-1153 117,-349 293,-654 524,-912 232,-259 522,-459 870,-602 347,-142 751,-214 1209,-214 371,0 706,43 1009,130 301,86 568,180 799,284l-483 1222c-208,-116 -411,-211 -607,-285 -197,-74 -431,-111 -702,-111zm7400 4409l-1510 0 0 -2267 -1747 0 0 2267 -1510 0 0 -5563 1510 0 0 2063 1747 0 0 -2063 1510 0 0 5563zm3658 0l-1504 0 0 -4335 -1359 0 0 -1228 4217 0 0 1228 -1354 0 0 4335zm2149 0l0 -5563 1510 0 0 5563 -1510 0zm2713 -5563l1940 0c804,0 1378,119 1719,357 343,239 515,582 515,1027 0,244 -45,451 -132,621 -88,170 -198,304 -331,402 -133,99 -270,167 -409,203l0 38c152,37 304,101 455,188 150,87 276,218 376,392 100,174 151,409 151,707 0,336 -86,627 -257,871 -172,243 -416,430 -733,561 -317,131 -693,196 -1130,196l-2164 0 0 -5563zm1502 2133l453 0c248,0 424,-50 525,-153 101,-102 152,-227 152,-375 0,-152 -57,-268 -173,-348 -115,-79 -293,-120 -535,-120l-422 0 0 996zm0 1100l0 1169 529 0c262,0 444,-56 548,-169 104,-113 156,-254 156,-424 0,-99 -22,-192 -67,-281 -44,-87 -119,-158 -226,-213 -106,-54 -254,-82 -441,-82l-499 0zm4908 343l-1255 0 -195 -3576 1645 0 -195 3576zm-1434 1338c0,-269 79,-457 238,-566 158,-110 346,-164 565,-164 215,0 401,54 555,164 155,109 233,297 233,566 0,257 -78,441 -233,556 -154,114 -340,171 -555,171 -219,0 -407,-57 -565,-171 -159,-115 -238,-299 -238,-556z"/>
 </g>
</svg>
