<?xml version="1.0" encoding="UTF-8"?>
<!DOCTYPE svg PUBLIC "-//W3C//DTD SVG 1.1//EN" "http://www.w3.org/Graphics/SVG/1.1/DTD/svg11.dtd">
<!-- Creator: CorelDRAW X7 -->
<svg xmlns="http://www.w3.org/2000/svg" xml:space="preserve" width="57.1207mm" height="10.1846mm" version="1.1" style="shape-rendering:geometricPrecision; text-rendering:geometricPrecision; image-rendering:optimizeQuality; fill-rule:evenodd; clip-rule:evenodd"
viewBox="0 0 839852 149745"
 xmlns:xlink="http://www.w3.org/1999/xlink">
 <defs>
  <style type="text/css">
   <![CDATA[
    .fil0 {fill:#05ABAB;fill-rule:nonzero}
   ]]>
  </style>
 </defs>
 <g id="Слой_x0020_1">
  <metadata id="CorelCorpID_0Corel-Layer"/>
  <path class="fil0" d="M41879 59317l-12064 0 0 -34628 -8476 0c-146,1671 -333,3538 -581,5623 -238,2085 -509,4211 -799,6400 -301,2179 -601,4274 -933,6287 -322,2012 -654,3766 -996,5270 -529,2458 -1307,4564 -2334,6307 -1016,1753 -2407,3091 -4170,4025 -1765,933 -4036,1401 -6817,1401 -892,0 -1721,-63 -2489,-187 -767,-114 -1504,-281 -2220,-478l0 -9274c550,186 1059,332 1525,436 467,114 954,177 1452,177 675,0 1266,-197 1785,-581 518,-384 996,-1235 1452,-2532 457,-1297 913,-3299 1360,-6006 154,-872 373,-2169 632,-3911 269,-1732 560,-3786 903,-6173 332,-2376 673,-4969 1026,-7791 353,-2821 706,-5756 1048,-8807l30696 0 0 44442zm36869 0l-2189 -8278 -14440 0 -2241 8278 -13196 0 14493 -44442 16016 0 14680 44442 -13123 0zm-4678 -18123l-1920 -7262c-197,-788 -497,-1909 -881,-3372 -385,-1463 -769,-2967 -1143,-4533 -373,-1565 -663,-2852 -860,-3859 -186,1007 -447,2251 -777,3734 -333,1484 -675,2947 -1038,4400 -353,1452 -653,2665 -924,3630l-1908 7262 9451 0zm54638 -15944c0,2945 -903,5300 -2686,7064 -1795,1774 -4389,2946 -7771,3537l0 239c4108,353 7168,1453 9160,3308 2003,1868 2998,4275 2998,7242 0,2604 -716,4916 -2146,6929 -1422,2013 -3528,3589 -6308,4721 -2770,1141 -6183,1712 -10239,1712 -3848,0 -7168,-219 -9948,-665 -2791,-445 -5114,-1026 -6981,-1732l0 -10342c1233,612 2676,1131 4305,1566 1627,435 3287,778 4968,1006 1680,228 3195,353 4555,353 3443,0 5881,-374 7313,-1110 1431,-737 2137,-1919 2137,-3559 0,-1504 -850,-2634 -2563,-3381 -1712,-747 -4263,-1121 -7644,-1121l-5229 0 0 -9730 4679 0c2551,0 4502,-136 5850,-425 1348,-281 2272,-716 2750,-1287 486,-570 736,-1297 736,-2168 0,-1068 -498,-1888 -1473,-2479 -987,-591 -2635,-893 -4939,-893 -1847,0 -3671,250 -5487,747 -1816,499 -3538,1287 -5156,2356l-5042 -8268c1680,-1090 3382,-1982 5105,-2677 1722,-684 3620,-1193 5684,-1515 2064,-322 4471,-487 7200,-487 3339,0 6224,477 8651,1431 2418,954 4275,2261 5571,3911 1297,1660 1950,3558 1950,5717zm35801 34067l-26381 0 0 -44442 26381 0 0 9638 -14378 0 0 6991 13309 0 0 9638 -13309 0 0 8393 14378 0 0 9782zm23154 -44442c5633,0 9856,1225 12667,3673 2801,2458 4201,5944 4201,10457 0,2023 -290,3973 -861,5840 -582,1857 -1526,3517 -2833,4980 -1307,1463 -3039,2614 -5196,3464 -2158,851 -4814,1276 -7978,1276l-3371 0 0 14752 -12002 0 0 -44442 15373 0zm-269 9700l-3102 0 0 10208 2376 0c1026,0 1991,-176 2883,-539 893,-353 1609,-924 2148,-1732 528,-800 799,-1868 799,-3207 0,-1390 -415,-2531 -1246,-3413 -829,-882 -2116,-1317 -3858,-1317zm62303 34742l-12064 0 0 -18113 -13953 0 0 18113 -12064 0 0 -44442 12064 0 0 16484 13953 0 0 -16484 12064 0 0 44442zm35987 0l-26380 0 0 -44442 26380 0 0 9638 -14378 0 0 6991 13309 0 0 9638 -13309 0 0 8393 14378 0 0 9782zm23955 0l0 -44442 29232 0 0 9638 -17230 0 0 6058 4346 0c3808,0 6950,580 9410,1732 2458,1152 4283,2760 5487,4814 1193,2054 1784,4430 1784,7126 0,4679 -1576,8362 -4741,11048 -3153,2688 -7551,4026 -13184,4026l-15104 0zm12002 -9513l3320 0c1960,0 3402,-425 4325,-1287 924,-860 1380,-2095 1380,-3693 0,-1037 -239,-1898 -716,-2603 -467,-695 -1121,-1224 -1960,-1587 -831,-364 -1754,-550 -2791,-550l-3558 0 0 9720zm54648 9513l-26380 0 0 -44442 26380 0 0 9638 -14378 0 0 6991 13309 0 0 9638 -13309 0 0 8393 14378 0 0 9782zm39815 -34067c0,2945 -903,5300 -2686,7064 -1796,1774 -4389,2946 -7771,3537l0 239c4108,353 7168,1453 9160,3308 2003,1868 2998,4275 2998,7242 0,2604 -716,4916 -2147,6929 -1421,2013 -3527,3589 -6307,4721 -2770,1141 -6183,1712 -10239,1712 -3848,0 -7168,-219 -9949,-665 -2790,-445 -5113,-1026 -6981,-1732l0 -10342c1234,612 2676,1131 4305,1566 1628,435 3288,778 4969,1006 1680,228 3195,353 4555,353 3443,0 5881,-374 7313,-1110 1431,-737 2136,-1919 2136,-3559 0,-1504 -850,-2634 -2562,-3381 -1712,-747 -4263,-1121 -7645,-1121l-5228 0 0 -9730 4679 0c2551,0 4502,-136 5850,-425 1348,-281 2272,-716 2749,-1287 487,-570 737,-1297 737,-2168 0,-1068 -498,-1888 -1473,-2479 -987,-591 -2635,-893 -4939,-893 -1847,0 -3671,250 -5487,747 -1816,499 -3538,1287 -5157,2356l-5041 -8268c1680,-1090 3381,-1982 5105,-2677 1721,-684 3620,-1193 5684,-1515 2064,-322 4471,-487 7200,-487 3339,0 6224,477 8651,1431 2417,954 4274,2261 5571,3911 1297,1660 1950,3558 1950,5717zm50998 11825c0,3434 -415,6556 -1234,9368 -820,2811 -2107,5228 -3849,7262 -1743,2023 -3973,3578 -6712,4668 -2739,1089 -6006,1629 -9813,1629 -3735,0 -6962,-540 -9679,-1629 -2729,-1090 -4970,-2635 -6733,-4658 -1764,-2023 -3071,-4440 -3921,-7262 -851,-2822 -1276,-5965 -1276,-9429 0,-4627 757,-8653 2292,-12076 1525,-3412 3890,-6068 7096,-7945 3205,-1878 7292,-2812 12283,-2812 5062,0 9180,944 12344,2832 3175,1888 5498,4544 6981,7977 1474,3424 2221,7448 2221,12075zm-30581 11c0,2676 310,4980 911,6909 613,1929 1578,3412 2895,4450 1318,1037 3039,1556 5167,1556 2208,0 3962,-519 5270,-1556 1307,-1038 2251,-2521 2821,-4450 581,-1929 870,-4233 870,-6909 0,-4025 -663,-7211 -2001,-9544 -1338,-2334 -3642,-3507 -6898,-3507 -2169,0 -3922,529 -5249,1588 -1328,1057 -2282,2561 -2885,4512 -601,1950 -901,4264 -901,6951zm38600 22231l0 -44442 36412 0 0 44442 -12096 0 0 -34628 -12252 0 0 34628 -12064 0zm72367 0l-26380 0 0 -44442 26380 0 0 9638 -14378 0 0 6991 13309 0 0 9638 -13309 0 0 8393 14378 0 0 9782zm23154 -44442c5633,0 9856,1225 12667,3673 2801,2458 4201,5944 4201,10457 0,2023 -290,3973 -860,5840 -583,1857 -1527,3517 -2834,4980 -1307,1463 -3039,2614 -5196,3464 -2158,851 -4813,1276 -7978,1276l-3371 0 0 14752 -12002 0 0 -44442 15373 0zm-269 9700l-3102 0 0 10208 2376 0c1026,0 1991,-176 2883,-539 893,-353 1609,-924 2148,-1732 528,-800 799,-1868 799,-3207 0,-1390 -415,-2531 -1246,-3413 -829,-882 -2115,-1317 -3858,-1317zm51485 34742l-2190 -8278 -14439 0 -2241 8278 -13196 0 14493 -44442 16016 0 14679 44442 -13122 0zm-4679 -18123l-1920 -7262c-197,-788 -497,-1909 -881,-3372 -385,-1463 -769,-2967 -1142,-4533 -374,-1565 -663,-2852 -860,-3859 -187,1007 -447,2251 -778,3734 -332,1484 -675,2947 -1038,4400 -353,1452 -653,2665 -923,3630l-1909 7262 9451 0zm68405 8278l0 23663 -11702 0 0 -13818 -34098 0 0 -44442 12064 0 0 34597 12334 0 0 -34597 12076 0 0 34597 9326 0zm5924 9845l0 -44442 12064 0 0 44442 -12064 0zm21671 -44442l11183 0 0 20333c0,913 -12,1878 -32,2873 -21,1007 -52,1992 -93,2967 -41,975 -84,1898 -146,2770 -61,872 -135,1640 -217,2303l248 0 18289 -31246 13767 0 0 44442 -11214 0 0 -19244c0,-829 21,-1773 51,-2821 31,-1059 72,-2137 115,-3257 52,-1110 113,-2189 187,-3217 72,-1037 144,-1939 228,-2707l-271 0 -18298 31246 -13797 0 0 -44442zm37947 -14875c-240,2272 -903,4274 -1972,6017 -1079,1742 -2676,3100 -4803,4087 -2126,985 -4886,1473 -8268,1473 -3287,0 -5985,-426 -8111,-1276 -2128,-851 -3745,-2138 -4835,-3849 -1100,-1712 -1742,-3858 -1949,-6452l9906 0c124,2208 612,3702 1462,4482 851,777 2023,1171 3527,1171 1338,0 2459,-404 3372,-1214 913,-819 1452,-2292 1608,-4439l10063 0zm52739 59317l-12064 0 0 -18113 -13954 0 0 18113 -12063 0 0 -44442 12063 0 0 16484 13954 0 0 -16484 12064 0 0 44442zm35987 0l-26380 0 0 -44442 26380 0 0 9638 -14378 0 0 6991 13309 0 0 9638 -13309 0 0 8393 14378 0 0 9782zm-797973 89743l-12064 0 0 -34627 -8476 0c-146,1670 -333,3537 -581,5622 -238,2085 -509,4211 -799,6401 -301,2179 -601,4274 -933,6287 -322,2011 -654,3765 -996,5269 -529,2459 -1307,4564 -2334,6308 -1016,1752 -2407,3090 -4170,4024 -1765,934 -4036,1401 -6817,1401 -892,0 -1721,-63 -2489,-186 -767,-115 -1504,-281 -2220,-478l0 -9275c550,187 1059,332 1525,437 467,113 954,176 1452,176 675,0 1266,-197 1785,-581 518,-383 996,-1235 1452,-2532 457,-1296 913,-3299 1360,-6006 154,-872 373,-2168 632,-3911 269,-1732 560,-3786 903,-6172 332,-2376 673,-4970 1026,-7791 353,-2822 706,-5757 1048,-8807l30696 0 0 44441zm9607 0l0 -44441 12064 0 0 44441 -12064 0zm60509 0l-13589 0 -13185 -22521 0 22521 -12064 0 0 -44441 12064 0 0 21525 12708 -21525 13185 0 -13704 21215 14585 23226zm42855 -44441l-13496 31245c-1307,3061 -2729,5623 -4253,7688 -1515,2054 -3435,3600 -5758,4636 -2313,1038 -5354,1557 -9098,1557 -1016,0 -2251,-73 -3692,-219 -1453,-134 -2813,-373 -4088,-694l0 -10032c1131,446 2354,747 3672,903 1317,146 2501,228 3558,228 1110,0 2023,-187 2718,-540 706,-353 1256,-808 1660,-1348 405,-540 706,-1069 913,-1576l-14503 -31848 12946 0 5479 13579c279,696 611,1535 995,2541 384,1007 757,2023 1110,3061 353,1037 622,1940 809,2707l363 0c248,-985 581,-2126 1007,-3402 425,-1287 850,-2490 1275,-3630 426,-1131 726,-1952 913,-2459l4523 -12397 12947 0zm4077 0l15499 0c6421,0 11005,954 13734,2852 2739,1910 4108,4648 4108,8206 0,1951 -353,3601 -1048,4959 -704,1359 -1587,2428 -2645,3216 -1068,788 -2157,1327 -3267,1618l0 300c1213,302 2427,811 3630,1505 1204,695 2210,1743 3008,3133 800,1391 1204,3268 1204,5643 0,2688 -685,5011 -2054,6962 -1370,1939 -3320,3433 -5850,4481 -2532,1047 -5540,1566 -9026,1566l-17293 0 0 -44441zm12003 17043l3619 0c1982,0 3382,-404 4192,-1223 809,-820 1213,-1816 1213,-2998 0,-1214 -455,-2138 -1379,-2780 -923,-633 -2345,-954 -4274,-954l-3371 0 0 7955zm0 8787l0 9336 4221 0c2096,0 3548,-445 4378,-1348 830,-903 1246,-2033 1246,-3392 0,-788 -177,-1535 -530,-2241 -352,-695 -954,-1266 -1805,-1701 -850,-435 -2034,-654 -3527,-654l-3983 0zm57201 18611l-2190 -8278 -14440 0 -2240 8278 -13196 0 14492 -44441 16016 0 14680 44441 -13122 0zm-4679 -18123l-1920 -7262c-197,-788 -497,-1908 -881,-3371 -385,-1463 -769,-2967 -1142,-4533 -374,-1566 -664,-2853 -861,-3860 -186,1007 -446,2251 -777,3735 -333,1483 -675,2946 -1038,4399 -353,1453 -653,2666 -924,3630l-1908 7262 9451 0zm60686 18123l-12064 0 0 -18113 -13954 0 0 18113 -12063 0 0 -44441 12063 0 0 16483 13954 0 0 -16483 12064 0 0 44441zm47688 0l-12064 0 0 -18113 -13953 0 0 18113 -12064 0 0 -44441 12064 0 0 16483 13953 0 0 -16483 12064 0 0 44441zm26599 -16184l-8787 16184 -13620 0 12188 -19440c-1214,-685 -2355,-1566 -3412,-2635 -1069,-1079 -1920,-2376 -2573,-3911 -644,-1525 -975,-3300 -975,-5333 0,-4336 1514,-7603 4533,-9813 3018,-2210 7541,-3309 13580,-3309l14740 0 0 44441 -12003 0 0 -16184 -3671 0zm3671 -19169l-2551 0c-1660,0 -2936,238 -3828,716 -893,476 -1504,1057 -1837,1762 -342,696 -507,1402 -507,2106 0,2086 601,3537 1794,4348 1194,808 2760,1213 4678,1213l2251 0 0 -10145zm37783 -9088l15499 0c6420,0 11005,954 13734,2852 2739,1910 4108,4648 4108,8206 0,1951 -353,3601 -1049,4959 -704,1359 -1586,2428 -2645,3216 -1067,788 -2157,1327 -3267,1618l0 300c1213,302 2428,811 3631,1505 1204,695 2209,1743 3008,3133 800,1391 1204,3268 1204,5643 0,2688 -685,5011 -2054,6962 -1370,1939 -3320,3433 -5850,4481 -2532,1047 -5541,1566 -9027,1566l-17292 0 0 -44441zm12002 17043l3620 0c1982,0 3382,-404 4192,-1223 809,-820 1213,-1816 1213,-2998 0,-1214 -456,-2138 -1379,-2780 -924,-633 -2345,-954 -4274,-954l-3372 0 0 7955zm0 8787l0 9336 4221 0c2097,0 3548,-445 4379,-1348 829,-903 1245,-2033 1245,-3392 0,-788 -176,-1535 -529,-2241 -353,-695 -954,-1266 -1805,-1701 -850,-435 -2034,-654 -3528,-654l-3983 0zm57201 18611l-2189 -8278 -14440 0 -2241 8278 -13196 0 14493 -44441 16016 0 14680 44441 -13123 0zm-4678 -18123l-1921 -7262c-197,-788 -497,-1908 -880,-3371 -386,-1463 -769,-2967 -1143,-4533 -373,-1566 -663,-2853 -860,-3860 -187,1007 -447,2251 -778,3735 -332,1483 -675,2946 -1038,4399 -353,1453 -653,2666 -923,3630l-1909 7262 9452 0zm37978 -26318c5633,0 9855,1224 12666,3672 2801,2459 4201,5945 4201,10457 0,2023 -290,3973 -860,5840 -582,1857 -1526,3517 -2833,4980 -1307,1463 -3039,2614 -5196,3464 -2159,852 -4814,1276 -7978,1276l-3372 0 0 14752 -12002 0 0 -44441 15374 0zm-269 9699l-3103 0 0 10209 2376 0c1027,0 1991,-177 2884,-540 892,-353 1608,-923 2148,-1732 528,-800 798,-1867 798,-3207 0,-1389 -415,-2530 -1245,-3412 -829,-883 -2116,-1318 -3858,-1318zm24222 -9699l11183 0 0 20332c0,914 -12,1878 -33,2873 -20,1008 -51,1993 -92,2968 -41,974 -84,1898 -146,2770 -62,871 -135,1639 -217,2302l248 0 18289 -31245 13767 0 0 44441 -11214 0 0 -19243c0,-830 20,-1773 51,-2822 31,-1058 72,-2136 115,-3257 51,-1110 113,-2189 187,-3217 72,-1036 144,-1939 228,-2706l-271 0 -18298 31245 -13797 0 0 -44441zm91443 44441l-13589 0 -13186 -22521 0 22521 -12064 0 0 -44441 12064 0 0 21525 12708 -21525 13186 0 -13705 21215 14586 23226zm46112 -22241c0,3433 -415,6556 -1234,9367 -821,2811 -2107,5229 -3849,7262 -1743,2023 -3973,3579 -6712,4668 -2740,1090 -6007,1629 -9813,1629 -3735,0 -6962,-539 -9679,-1629 -2729,-1089 -4970,-2635 -6733,-4658 -1764,-2023 -3071,-4440 -3921,-7262 -851,-2821 -1276,-5965 -1276,-9429 0,-4627 757,-8653 2292,-12075 1525,-3413 3890,-6068 7096,-7946 3205,-1878 7292,-2811 12283,-2811 5062,0 9180,944 12344,2832 3175,1888 5498,4543 6981,7976 1474,3424 2221,7449 2221,12076zm-30581 10c0,2676 310,4980 911,6909 613,1929 1578,3413 2895,4451 1318,1036 3039,1555 5167,1555 2208,0 3962,-519 5269,-1555 1308,-1038 2251,-2522 2822,-4451 581,-1929 870,-4233 870,-6909 0,-4024 -663,-7210 -2001,-9544 -1338,-2333 -3642,-3506 -6898,-3506 -2169,0 -3922,529 -5249,1587 -1328,1058 -2282,2562 -2885,4513 -602,1949 -901,4264 -901,6950zm70633 -11836c0,2945 -903,5300 -2686,7065 -1795,1773 -4389,2945 -7771,3536l0 240c4108,353 7168,1452 9160,3308 2003,1867 2998,4274 2998,7241 0,2604 -716,4917 -2146,6930 -1422,2013 -3528,3589 -6308,4721 -2770,1141 -6183,1711 -10239,1711 -3848,0 -7168,-219 -9948,-664 -2791,-446 -5114,-1027 -6981,-1732l0 -10342c1233,611 2676,1130 4305,1565 1627,436 3287,778 4968,1006 1681,228 3195,353 4555,353 3443,0 5881,-373 7313,-1110 1431,-737 2137,-1919 2137,-3558 0,-1504 -850,-2635 -2563,-3382 -1712,-747 -4262,-1120 -7644,-1120l-5229 0 0 -9731 4679 0c2551,0 4502,-135 5850,-425 1349,-281 2272,-716 2750,-1286 486,-571 736,-1297 736,-2169 0,-1067 -498,-1888 -1473,-2479 -986,-591 -2635,-892 -4939,-892 -1846,0 -3671,249 -5487,746 -1816,499 -3537,1287 -5156,2356l-5042 -8268c1681,-1089 3382,-1982 5105,-2677 1722,-684 3620,-1193 5684,-1515 2065,-322 4471,-486 7200,-486 3339,0 6224,476 8652,1430 2417,955 4274,2262 5571,3911 1296,1660 1949,3559 1949,5717zm47741 -10374l-13496 31245c-1307,3061 -2729,5623 -4253,7688 -1515,2054 -3435,3600 -5758,4636 -2313,1038 -5353,1557 -9098,1557 -1016,0 -2251,-73 -3692,-219 -1453,-134 -2813,-373 -4088,-694l0 -10032c1131,446 2354,747 3672,903 1317,146 2501,228 3558,228 1110,0 2023,-187 2718,-540 706,-353 1256,-808 1660,-1348 405,-540 706,-1069 913,-1576l-14503 -31848 12946 0 5479 13579c279,696 611,1535 995,2541 384,1007 757,2023 1110,3061 353,1037 622,1940 809,2707l363 0c249,-985 581,-2126 1007,-3402 425,-1287 850,-2490 1275,-3630 426,-1131 726,-1952 913,-2459l4523 -12397 12947 0zm13340 28569l-10020 0 -1557 -28569 13134 0 -1557 28569zm-11452 10685c0,-2147 632,-3651 1898,-4523 1266,-872 2770,-1307 4513,-1307 1721,0 3205,435 4440,1307 1235,872 1857,2376 1857,4523 0,2054 -622,3527 -1857,4440 -1235,913 -2719,1369 -4440,1369 -1743,0 -3247,-456 -4513,-1369 -1266,-913 -1898,-2386 -1898,-4440z"/>
 </g>
</svg>
