<?xml version="1.0" encoding="UTF-8"?>
<!DOCTYPE svg PUBLIC "-//W3C//DTD SVG 1.1//EN" "http://www.w3.org/Graphics/SVG/1.1/DTD/svg11.dtd">
<!-- Creator: CorelDRAW X7 -->
<svg xmlns="http://www.w3.org/2000/svg" xml:space="preserve" width="37.9415mm" height="13.5385mm" version="1.1" style="shape-rendering:geometricPrecision; text-rendering:geometricPrecision; image-rendering:optimizeQuality; fill-rule:evenodd; clip-rule:evenodd"
viewBox="0 0 172446 61533"
 xmlns:xlink="http://www.w3.org/1999/xlink">
 <defs>
  <style type="text/css">
   <![CDATA[
    .fil0 {fill:#05ABAB;fill-rule:nonzero}
   ]]>
  </style>
 </defs>
 <g id="Слой_x0020_1">
  <metadata id="CorelCorpID_0Corel-Layer"/>
  <path class="fil0" d="M51059 0l-4172 9659c-404,946 -843,1738 -1315,2376 -468,635 -1061,1113 -1780,1433 -715,321 -1654,482 -2812,482 -314,0 -696,-23 -1141,-68 -449,-41 -870,-116 -1264,-215l0 -3101c350,138 728,231 1135,279 407,45 773,71 1100,71 343,0 625,-58 840,-167 219,-109 388,-250 513,-417 125,-167 219,-330 283,-487l-4484 -9845 4002 0 1694 4198c86,215 189,474 308,785 118,312 234,626 343,946 109,321 192,600 250,837l112 0c77,-304 180,-657 311,-1052 132,-397 263,-769 394,-1122 132,-349 225,-603 283,-760l1398 -3832 4002 0zm18266 13738l-4201 0 -4076 -6962 0 6962 -3729 0 0 -13738 3729 0 0 6654 3928 -6654 4076 0 -4236 6558 4509 7180zm13096 0l-3729 0 0 -10704 -2620 0c-45,516 -103,1093 -180,1738 -73,644 -157,1302 -247,1978 -93,674 -185,1322 -288,1944 -100,622 -202,1164 -308,1629 -163,760 -404,1410 -722,1950 -314,541 -744,955 -1289,1244 -545,288 -1247,433 -2107,433 -276,0 -532,-20 -769,-58 -237,-36 -465,-87 -686,-148l0 -2867c170,58 327,103 471,135 144,35 295,55 449,55 209,0 391,-61 552,-180 160,-118 307,-382 448,-782 142,-401 283,-1020 421,-1857 47,-270 115,-670 195,-1209 83,-535 173,-1170 279,-1908 103,-735 208,-1536 317,-2409 110,-872 219,-1779 325,-2722l9488 0 0 13738zm2970 0l0 -13738 3729 0 0 13738 -3729 0zm18471 0l-3730 0 0 -5599 -4313 0 0 5599 -3729 0 0 -13738 3729 0 0 5095 4313 0 0 -5095 3730 0 0 13738zm2969 0l0 -13738 3730 0 0 13738 -3730 0zm20857 -3044l0 7315 -3617 0 0 -4271 -10541 0 0 -13738 3729 0 0 10694 3813 0 0 -10694 3733 0 0 10694 2883 0zm1831 3044l0 -13738 3729 0 0 13738 -3729 0zm-122625 12915c-420,0 -798,51 -1141,153 -340,100 -642,260 -898,475 -256,218 -465,491 -629,821 -163,330 -275,725 -336,1183l5448 0 0 2828 -5448 0c29,405 115,764 253,1081 138,314 330,581 581,799 250,218 564,384 936,497 372,112 802,170 1292,170 738,0 1411,-74 2020,-225 607,-150 1248,-346 1925,-583l0 3072c-552,244 -1190,442 -1918,596 -725,154 -1491,231 -2299,231 -1555,0 -2822,-292 -3807,-879 -981,-583 -1709,-1401 -2174,-2456 -468,-1055 -699,-2290 -699,-3713 0,-1030 144,-1979 430,-2845 288,-862 721,-1616 1292,-2254 574,-639 1289,-1132 2149,-1485 856,-352 1853,-529 2985,-529 917,0 1745,106 2492,321 744,211 1401,445 1972,702l-1193 3018c-513,-289 -1013,-523 -1498,-706 -487,-183 -1064,-272 -1735,-272zm6504 -2852l4791 0c1985,0 3402,295 4245,882 847,591 1270,1437 1270,2537 0,603 -109,1113 -324,1533 -218,420 -490,750 -817,994 -330,243 -667,410 -1010,500l0 93c375,93 750,250 1122,465 372,215 683,539 930,969 247,429 372,1010 372,1744 0,831 -212,1549 -635,2152 -424,599 -1026,1061 -1808,1385 -783,324 -1713,484 -2791,484l-5345 0 0 -13738zm3710 5269l1119 0c613,0 1045,-125 1296,-378 250,-254 375,-561 375,-927 0,-375 -141,-661 -427,-859 -285,-196 -725,-295 -1321,-295l-1042 0 0 2459zm0 2716l0 2886 1305 0c648,0 1097,-137 1353,-416 257,-280 385,-629 385,-1049 0,-244 -54,-474 -163,-693 -109,-215 -295,-391 -558,-526 -263,-134 -629,-202 -1091,-202l-1231 0zm14007 -7985c1741,0 3046,379 3915,1136 866,760 1299,1837 1299,3232 0,626 -90,1228 -266,1806 -180,574 -472,1087 -876,1539 -404,452 -939,808 -1606,1071 -667,263 -1488,394 -2466,394l-1042 0 0 4560 -3710 0 0 -13738 4752 0zm-83 2999l-959 0 0 3155 734 0c317,0 616,-54 892,-166 275,-109 497,-286 664,-536 163,-247 246,-577 246,-991 0,-430 -128,-782 -385,-1055 -256,-273 -654,-407 -1192,-407zm20340 3864c0,1061 -128,2027 -382,2896 -253,869 -651,1616 -1189,2245 -539,625 -1229,1106 -2075,1443 -847,336 -1857,503 -3034,503 -1154,0 -2152,-167 -2992,-503 -843,-337 -1536,-815 -2081,-1440 -545,-626 -949,-1373 -1212,-2245 -263,-872 -395,-1844 -395,-2915 0,-1430 235,-2675 709,-3733 471,-1055 1203,-1875 2194,-2456 990,-580 2254,-869 3796,-869 1565,0 2838,292 3816,876 982,583 1700,1404 2158,2465 456,1059 687,2303 687,3733zm-9453 3c0,827 95,1540 281,2136 190,596 488,1055 895,1376 407,320 940,481 1597,481 683,0 1225,-161 1629,-481 404,-321 696,-780 872,-1376 180,-596 270,-1309 270,-2136 0,-1244 -205,-2229 -619,-2950 -414,-721 -1126,-1084 -2133,-1084 -670,0 -1212,164 -1622,491 -411,327 -706,792 -892,1395 -186,602 -278,1318 -278,2148zm11932 6872l0 -13738 11255 0 0 13738 -3739 0 0 -10704 -3787 0 0 10704 -3729 0zm22370 0l-8155 0 0 -13738 8155 0 0 2980 -4445 0 0 2161 4114 0 0 2979 -4114 0 0 2595 4445 0 0 3023zm2405 -13738l3457 0 0 6286c0,282 -4,580 -10,888 -6,311 -16,616 -29,917 -12,301 -25,587 -45,856 -19,270 -41,507 -67,712l77 0 5654 -9659 4255 0 0 13738 -3466 0 0 -5948c0,-257 6,-548 16,-872 9,-328 22,-661 35,-1007 16,-343 35,-677 58,-995 22,-320 44,-599 70,-836l-84 0 -5656 9658 -4265 0 0 -13738zm11730 -4598c-74,702 -279,1322 -609,1860 -334,539 -827,959 -1485,1264 -657,304 -1510,455 -2556,455 -1016,0 -1850,-132 -2507,-394 -658,-264 -1158,-661 -1495,-1190 -339,-529 -538,-1193 -602,-1995l3062 0c38,683 189,1145 452,1386 263,240 625,362 1090,362 414,0 760,-125 1043,-376 282,-253 449,-708 497,-1372l3110 0zm10647 7430c-440,0 -831,93 -1174,279 -347,186 -638,456 -882,808 -247,353 -433,783 -561,1289 -128,507 -193,1081 -193,1722 0,869 110,1601 331,2191 218,593 551,1039 1000,1340 446,305 1010,455 1687,455 613,0 1203,-86 1770,-253 568,-170 1138,-375 1716,-612l0 3139c-610,269 -1232,462 -1867,581 -635,118 -1311,179 -2023,179 -1491,0 -2713,-298 -3659,-892 -949,-593 -1648,-1417 -2097,-2472 -446,-1055 -670,-2280 -670,-3675 0,-1042 144,-1998 435,-2864 293,-865 719,-1619 1284,-2257 564,-635 1259,-1129 2090,-1478 831,-350 1780,-523 2851,-523 664,0 1363,77 2101,231 734,154 1452,397 2154,737l-1138 2922c-500,-237 -1007,-440 -1520,-603 -513,-160 -1058,-244 -1635,-244zm6371 10906l0 -13738 3711 0 0 4849 1343 0c1177,0 2149,180 2909,536 760,356 1324,853 1696,1488 369,638 551,1372 551,2206 0,1446 -487,2585 -1465,3415 -975,831 -2334,1244 -4075,1244l-4670 0zm3711 -2940l1026 0c606,0 1052,-135 1337,-401 285,-266 426,-645 426,-1142 0,-317 -73,-587 -221,-801 -144,-218 -346,-382 -606,-494 -257,-112 -542,-170 -863,-170l-1099 0 0 3008zm20651 2940l-4201 0 -4076 -6961 0 6961 -3729 0 0 -13738 3729 0 0 6654 3929 -6654 4076 0 -4237 6559 4509 7179zm14254 -6875c0,1061 -128,2027 -381,2896 -254,869 -652,1616 -1190,2245 -539,625 -1228,1106 -2075,1443 -847,336 -1857,503 -3033,503 -1155,0 -2152,-167 -2992,-503 -844,-337 -1537,-815 -2082,-1440 -545,-626 -949,-1373 -1212,-2245 -263,-872 -394,-1844 -394,-2915 0,-1430 234,-2675 708,-3733 472,-1055 1203,-1875 2194,-2456 991,-580 2254,-869 3797,-869 1565,0 2838,292 3816,876 981,583 1699,1404 2158,2465 455,1059 686,2303 686,3733zm-9453 3c0,827 96,1540 282,2136 189,596 487,1055 895,1376 407,320 939,481 1597,481 682,0 1225,-161 1629,-481 404,-321 695,-780 872,-1376 179,-596 269,-1309 269,-2136 0,-1244 -205,-2229 -619,-2950 -413,-721 -1126,-1084 -2132,-1084 -671,0 -1212,164 -1623,491 -410,327 -705,792 -892,1395 -185,602 -278,1318 -278,2148zm21090 -6866l0 2999 -5429 0 0 10739 -3729 0 0 -13738 9158 0zm14819 6863c0,1061 -128,2027 -381,2896 -254,869 -652,1616 -1190,2245 -539,625 -1228,1106 -2075,1443 -847,336 -1857,503 -3034,503 -1154,0 -2152,-167 -2992,-503 -843,-337 -1536,-815 -2081,-1440 -545,-626 -949,-1373 -1212,-2245 -263,-872 -394,-1844 -394,-2915 0,-1430 234,-2675 708,-3733 472,-1055 1203,-1875 2194,-2456 990,-580 2254,-869 3797,-869 1564,0 2837,292 3816,876 981,583 1699,1404 2158,2465 455,1059 686,2303 686,3733zm-9453 3c0,827 96,1540 281,2136 190,596 488,1055 895,1376 408,320 940,481 1597,481 683,0 1225,-161 1629,-481 404,-321 696,-780 873,-1376 179,-596 269,-1309 269,-2136 0,-1244 -205,-2229 -619,-2950 -414,-721 -1126,-1084 -2132,-1084 -671,0 -1213,164 -1623,491 -410,327 -705,792 -892,1395 -186,602 -278,1318 -278,2148zm-103130 16936c1741,0 3047,379 3916,1135 866,760 1298,1838 1298,3233 0,625 -89,1228 -266,1805 -180,574 -471,1087 -875,1539 -404,453 -940,809 -1607,1071 -667,263 -1488,395 -2466,395l-1042 0 0 4560 -3710 0 0 -13738 4752 0zm-83 2998l-959 0 0 3156 735 0c317,0 615,-55 891,-167 276,-109 497,-285 664,-535 163,-247 247,-577 247,-991 0,-430 -129,-783 -385,-1055 -257,-273 -654,-408 -1193,-408zm7488 10740l0 -13738 3729 0 0 13738 -3729 0zm6699 -13738l4790 0c1985,0 3402,295 4246,882 847,590 1270,1436 1270,2536 0,603 -109,1113 -324,1533 -218,420 -491,751 -818,994 -330,244 -667,411 -1010,501l0 92c375,94 751,251 1122,465 373,215 684,539 930,969 248,430 373,1010 373,1744 0,831 -212,1549 -635,2152 -424,600 -1027,1062 -1809,1386 -782,323 -1712,484 -2790,484l-5345 0 0 -13738zm3710 5269l1119 0c612,0 1045,-125 1295,-379 250,-253 375,-561 375,-926 0,-376 -140,-661 -426,-860 -285,-195 -725,-295 -1321,-295l-1042 0 0 2460zm0 2716l0 2886 1305 0c648,0 1096,-138 1353,-417 256,-279 385,-629 385,-1048 0,-244 -55,-475 -164,-693 -109,-215 -295,-391 -558,-526 -262,-135 -628,-202 -1090,-202l-1231 0zm21026 5753l-3729 0 0 -5599 -4314 0 0 5599 -3729 0 0 -13738 3729 0 0 5095 4314 0 0 -5095 3729 0 0 13738zm8222 -5003l-2716 5003 -4210 0 3768 -6010c-376,-211 -729,-484 -1055,-814 -331,-334 -594,-735 -796,-1209 -199,-471 -301,-1020 -301,-1649 0,-1340 468,-2350 1401,-3033 933,-683 2331,-1023 4198,-1023l4556 0 0 13738 -3710 0 0 -5003 -1135 0zm1135 -5926l-788 0c-513,0 -908,74 -1184,222 -276,147 -465,326 -567,545 -106,215 -157,433 -157,650 0,645 186,1094 554,1344 369,250 853,375 1446,375l696 0 0 -3136zm9544 6022l-3098 0 -481 -8831 4060 0 -481 8831zm-3541 3303c0,-663 196,-1128 587,-1398 391,-269 856,-404 1395,-404 532,0 991,135 1373,404 381,270 574,735 574,1398 0,635 -193,1091 -574,1373 -382,282 -841,423 -1373,423 -539,0 -1004,-141 -1395,-423 -391,-282 -587,-738 -587,-1373z"/>
 </g>
</svg>
