<?xml version="1.0" encoding="UTF-8"?>
<!DOCTYPE svg PUBLIC "-//W3C//DTD SVG 1.1//EN" "http://www.w3.org/Graphics/SVG/1.1/DTD/svg11.dtd">
<!-- Creator: CorelDRAW X7 -->
<svg xmlns="http://www.w3.org/2000/svg" xml:space="preserve" width="39.3661mm" height="3.738mm" version="1.1" style="shape-rendering:geometricPrecision; text-rendering:geometricPrecision; image-rendering:optimizeQuality; fill-rule:evenodd; clip-rule:evenodd"
viewBox="0 0 390431 37073"
 xmlns:xlink="http://www.w3.org/1999/xlink">
 <defs>
  <style type="text/css">
   <![CDATA[
    .fil0 {fill:#05ABAB;fill-rule:nonzero}
   ]]>
  </style>
 </defs>
 <g id="Слой_x0020_1">
  <metadata id="CorelCorpID_0Corel-Layer"/>
  <path class="fil0" d="M13134 12896l7649 0 0 5493 -7649 0 0 7404 -5492 0 0 -7404 -7642 0 0 -5493 7642 0 0 -7522 5492 0 0 7522zm31580 -5947c0,1420 -307,2652 -916,3687 -609,1035 -1414,1882 -2421,2540 -1001,658 -2100,1147 -3289,1477l0 126c2393,300 4241,1028 5549,2190 1301,1154 1959,2798 1959,4926 0,1644 -441,3149 -1315,4514 -875,1364 -2233,2456 -4080,3267 -1847,819 -4213,1225 -7117,1225 -1938,0 -3589,-147 -4961,-434 -1364,-287 -2686,-678 -3975,-1182l0 -6725c1302,665 2638,1162 4010,1483 1372,322 2624,483 3758,483 1974,0 3316,-287 4031,-847 721,-566 1077,-1322 1077,-2274 0,-692 -168,-1274 -511,-1757 -342,-482 -972,-853 -1896,-1118 -924,-260 -2246,-393 -3968,-393l-1847 0 0 -6088 1889 0c1525,0 2743,-140 3639,-412 896,-273 1539,-651 1939,-1127 392,-476 594,-1022 594,-1637 0,-798 -307,-1393 -923,-1778 -616,-385 -1428,-574 -2442,-574 -904,0 -1750,119 -2541,364 -798,252 -1483,525 -2071,826 -588,301 -1035,546 -1337,735l-3358 -5409c1246,-847 2666,-1568 4275,-2155 1602,-588 3709,-882 6305,-882 3086,0 5514,615 7284,1847 1770,1238 2659,2931 2659,5102zm14989 -6949c1981,0 3716,266 5214,804 1497,532 2666,1344 3519,2435 847,1085 1267,2457 1267,4101 0,1203 -224,2268 -665,3177 -441,909 -1050,1708 -1826,2386 -770,679 -1658,1260 -2673,1757 944,531 1875,1154 2806,1868 930,713 1700,1553 2316,2519 616,965 924,2113 924,3443 0,1603 -386,3044 -1169,4310 -777,1267 -1973,2268 -3590,3002 -1609,735 -3680,1099 -6206,1099 -2526,0 -4598,-350 -6215,-1050 -1609,-699 -2799,-1672 -3554,-2932 -763,-1252 -1141,-2700 -1141,-4345 0,-1399 238,-2575 707,-3534 475,-959 1120,-1778 1938,-2449 819,-672 1757,-1274 2813,-1812 -839,-561 -1602,-1197 -2302,-1910 -692,-715 -1246,-1526 -1658,-2443 -406,-924 -616,-1966 -616,-3128 0,-1616 433,-2967 1294,-4052 861,-1084 2051,-1896 3576,-2435 1526,-538 3268,-811 5241,-811zm-3568 22252c0,840 300,1518 902,2043 602,525 1434,784 2498,784 1246,0 2156,-238 2737,-714 580,-469 875,-1119 875,-1945 0,-615 -183,-1176 -547,-1680 -364,-503 -783,-937 -1260,-1308 -476,-371 -895,-658 -1252,-868l-553 -329c-615,316 -1175,673 -1694,1064 -510,392 -923,832 -1237,1315 -316,490 -469,1036 -469,1638zm3526 -16409c-671,0 -1252,195 -1742,588 -497,392 -742,923 -742,1595 0,441 105,854 322,1231 210,378 497,721 861,1043 356,315 770,602 1217,861 399,-231 784,-483 1169,-763 385,-273 707,-602 965,-987 259,-385 385,-846 385,-1385 0,-672 -238,-1203 -728,-1595 -482,-393 -1056,-588 -1707,-588zm24688 13072c0,-2226 182,-4445 553,-6642 370,-2197 973,-4303 1813,-6311 839,-2009 1965,-3843 3373,-5501l6682 0c-1882,2569 -3254,5466 -4101,8705 -847,3240 -1266,6481 -1266,9713 0,2120 181,4262 552,6424 364,2155 945,4241 1729,6249 790,2008 1805,3848 3044,5521l-6640 0c-1408,-1602 -2534,-3394 -3373,-5367 -840,-1981 -1443,-4052 -1813,-6228 -371,-2170 -553,-4360 -553,-6563zm36674 -3415c0,2414 -196,4569 -574,6465 -384,1904 -993,3513 -1840,4842 -839,1330 -1945,2345 -3331,3044 -1378,700 -3072,1050 -5080,1050 -2505,0 -4556,-616 -6151,-1840 -1603,-1225 -2778,-2989 -3534,-5284 -762,-2295 -1140,-5052 -1140,-8277 0,-3247 342,-6025 1035,-8335 693,-2309 1826,-4080 3415,-5318 1582,-1232 3708,-1847 6375,-1847 2498,0 4549,615 6136,1840 1596,1225 2772,2995 3541,5304 763,2310 1148,5095 1148,8356zm-13596 0c0,1965 77,3617 216,4947 147,1329 421,2330 820,2994 405,672 980,1001 1735,1001 749,0 1322,-329 1721,-1001 399,-664 672,-1658 819,-2987 154,-1323 223,-2975 223,-4954 0,-1988 -69,-3653 -223,-4983 -147,-1337 -420,-2338 -819,-3016 -399,-685 -972,-1022 -1721,-1022 -755,0 -1330,337 -1735,1022 -399,678 -673,1679 -820,3016 -139,1330 -216,2995 -216,4983zm16507 2281c0,-1722 126,-3444 371,-5150 245,-1701 686,-3318 1330,-4830 643,-1511 1553,-2854 2729,-4030 1175,-1169 2687,-2092 4527,-2763 1847,-673 4094,-1008 6746,-1008 588,0 1308,35 2155,104 847,64 1553,148 2113,245l0 6334c-560,-112 -1190,-204 -1889,-274 -700,-76 -1554,-119 -2562,-119 -2022,0 -3617,308 -4785,917 -1170,616 -2016,1491 -2534,2632 -518,1140 -818,2504 -903,4100l245 0c357,-658 791,-1246 1302,-1771 518,-531 1148,-944 1897,-1252 755,-308 1665,-462 2728,-462 1750,0 3254,377 4507,1141 1259,763 2225,1868 2897,3317 664,1455 1001,3218 1001,5304 0,2246 -428,4170 -1281,5766 -854,1595 -2072,2813 -3653,3653 -1575,846 -3457,1266 -5647,1266 -1610,0 -3100,-259 -4479,-784 -1370,-518 -2568,-1315 -3582,-2393 -1022,-1077 -1812,-2442 -2379,-4094 -567,-1651 -854,-3597 -854,-5849zm11113 6703c860,0 1560,-329 2098,-986 539,-665 813,-1701 813,-3122 0,-1140 -225,-2036 -666,-2686 -447,-658 -1168,-980 -2162,-980 -671,0 -1239,160 -1700,483 -469,321 -826,728 -1071,1225 -245,497 -371,1014 -371,1546 0,538 63,1077 176,1610 119,538 300,1021 552,1454 259,435 574,784 959,1058 378,266 839,398 1372,398zm13490 -6703c0,-1722 126,-3444 371,-5150 245,-1701 686,-3318 1330,-4830 644,-1511 1553,-2854 2729,-4030 1176,-1169 2687,-2092 4527,-2763 1848,-673 4094,-1008 6746,-1008 588,0 1308,35 2155,104 847,64 1553,148 2114,245l0 6334c-561,-112 -1190,-204 -1890,-274 -700,-76 -1554,-119 -2561,-119 -2023,0 -3617,308 -4786,917 -1169,616 -2015,1491 -2534,2632 -518,1140 -818,2504 -902,4100l245 0c357,-658 790,-1246 1302,-1771 518,-531 1147,-944 1896,-1252 756,-308 1665,-462 2729,-462 1749,0 3254,377 4506,1141 1260,763 2226,1868 2897,3317 665,1455 1001,3218 1001,5304 0,2246 -427,4170 -1280,5766 -854,1595 -2072,2813 -3653,3653 -1575,846 -3458,1266 -5647,1266 -1610,0 -3101,-259 -4479,-784 -1371,-518 -2568,-1315 -3583,-2393 -1021,-1077 -1812,-2442 -2379,-4094 -566,-1651 -854,-3597 -854,-5849zm11113 6703c860,0 1560,-329 2099,-986 538,-665 812,-1701 812,-3122 0,-1140 -224,-2036 -665,-2686 -448,-658 -1169,-980 -2163,-980 -671,0 -1238,160 -1700,483 -469,321 -826,728 -1071,1225 -245,497 -371,1014 -371,1546 0,538 64,1077 176,1610 119,538 300,1021 552,1454 259,435 575,784 959,1058 378,266 840,398 1372,398zm25632 -5569c0,2203 -189,4393 -560,6563 -364,2176 -972,4247 -1812,6228 -840,1973 -1974,3765 -3394,5367l-6641 0c1259,-1673 2274,-3513 3058,-5521 777,-2008 1350,-4094 1721,-6249 364,-2162 554,-4304 554,-6424 0,-2169 -190,-4331 -554,-6507 -371,-2170 -951,-4269 -1735,-6298 -784,-2029 -1812,-3905 -3086,-5613l6683 0c1420,1658 2554,3492 3394,5501 840,2008 1448,4114 1812,6311 371,2197 560,4416 560,6642zm31713 11524l-8222 0 0 -14828c0,-273 0,-777 0,-1505 0,-734 7,-1539 27,-2428 21,-888 57,-1693 99,-2400 -357,420 -694,784 -1001,1085 -301,301 -602,587 -889,846l-3401 2814 -4205 -5164 10293 -8398 7299 0 0 29978zm27290 -23490c0,1420 -308,2652 -917,3687 -608,1035 -1413,1882 -2421,2540 -1000,658 -2099,1147 -3288,1477l0 126c2393,300 4241,1028 5549,2190 1301,1154 1959,2798 1959,4926 0,1644 -441,3149 -1316,4514 -874,1364 -2232,2456 -4079,3267 -1847,819 -4213,1225 -7117,1225 -1938,0 -3589,-147 -4961,-434 -1365,-287 -2687,-678 -3975,-1182l0 -6725c1302,665 2638,1162 4010,1483 1372,322 2624,483 3758,483 1973,0 3316,-287 4030,-847 721,-566 1078,-1322 1078,-2274 0,-692 -168,-1274 -511,-1757 -342,-482 -972,-853 -1897,-1118 -923,-260 -2245,-393 -3967,-393l-1847 0 0 -6088 1889 0c1525,0 2743,-140 3639,-412 895,-273 1539,-651 1939,-1127 392,-476 594,-1022 594,-1637 0,-798 -308,-1393 -924,-1778 -615,-385 -1427,-574 -2441,-574 -904,0 -1750,119 -2541,364 -798,252 -1483,525 -2071,826 -588,301 -1036,546 -1337,735l-3358 -5409c1245,-847 2666,-1568 4275,-2155 1602,-588 3709,-882 6305,-882 3086,0 5514,615 7284,1847 1770,1238 2659,2931 2659,5102zm14989 -6949c1980,0 3716,266 5214,804 1496,532 2666,1344 3519,2435 847,1085 1267,2457 1267,4101 0,1203 -224,2268 -665,3177 -441,909 -1050,1708 -1826,2386 -770,679 -1659,1260 -2673,1757 944,531 1874,1154 2806,1868 930,713 1700,1553 2315,2519 616,965 925,2113 925,3443 0,1603 -386,3044 -1169,4310 -777,1267 -1973,2268 -3590,3002 -1609,735 -3680,1099 -6206,1099 -2527,0 -4598,-350 -6215,-1050 -1609,-699 -2799,-1672 -3555,-2932 -762,-1252 -1140,-2700 -1140,-4345 0,-1399 238,-2575 707,-3534 475,-959 1120,-1778 1938,-2449 819,-672 1756,-1274 2813,-1812 -839,-561 -1602,-1197 -2302,-1910 -693,-715 -1246,-1526 -1659,-2443 -405,-924 -615,-1966 -615,-3128 0,-1616 433,-2967 1294,-4052 861,-1084 2051,-1896 3576,-2435 1526,-538 3268,-811 5241,-811zm-3569 22252c0,840 301,1518 903,2043 602,525 1434,784 2498,784 1246,0 2155,-238 2737,-714 580,-469 874,-1119 874,-1945 0,-615 -182,-1176 -546,-1680 -364,-503 -784,-937 -1260,-1308 -476,-371 -895,-658 -1252,-868l-553 -329c-616,316 -1175,673 -1694,1064 -511,392 -923,832 -1237,1315 -316,490 -470,1036 -470,1638zm3527 -16409c-671,0 -1252,195 -1742,588 -497,392 -742,923 -742,1595 0,441 105,854 322,1231 209,378 497,721 861,1043 356,315 770,602 1217,861 399,-231 783,-483 1169,-763 385,-273 706,-602 965,-987 259,-385 385,-846 385,-1385 0,-672 -238,-1203 -728,-1595 -482,-393 -1056,-588 -1707,-588zm46296 9657c0,2414 -195,4569 -573,6465 -385,1904 -994,3513 -1841,4842 -839,1330 -1945,2345 -3330,3044 -1379,700 -3073,1050 -5080,1050 -2506,0 -4557,-616 -6151,-1840 -1603,-1225 -2778,-2989 -3534,-5284 -763,-2295 -1141,-5052 -1141,-8277 0,-3247 342,-6025 1036,-8335 692,-2309 1826,-4080 3414,-5318 1582,-1232 3709,-1847 6376,-1847 2497,0 4548,615 6136,1840 1596,1225 2771,2995 3541,5304 762,2310 1147,5095 1147,8356zm-13595 0c0,1965 76,3617 216,4947 147,1329 420,2330 819,2994 406,672 980,1001 1736,1001 749,0 1322,-329 1720,-1001 399,-664 673,-1658 820,-2987 153,-1323 223,-2975 223,-4954 0,-1988 -70,-3653 -223,-4983 -147,-1337 -421,-2338 -820,-3016 -398,-685 -971,-1022 -1720,-1022 -756,0 -1330,337 -1736,1022 -399,678 -672,1679 -819,3016 -140,1330 -216,2995 -216,4983zm38199 0c0,2414 -196,4569 -574,6465 -384,1904 -993,3513 -1840,4842 -839,1330 -1945,2345 -3331,3044 -1378,700 -3072,1050 -5080,1050 -2505,0 -4556,-616 -6151,-1840 -1603,-1225 -2778,-2989 -3534,-5284 -762,-2295 -1140,-5052 -1140,-8277 0,-3247 342,-6025 1035,-8335 692,-2309 1826,-4080 3415,-5318 1582,-1232 3708,-1847 6375,-1847 2498,0 4549,615 6136,1840 1596,1225 2771,2995 3541,5304 763,2310 1148,5095 1148,8356zm-13596 0c0,1965 76,3617 216,4947 147,1329 421,2330 820,2994 405,672 979,1001 1735,1001 749,0 1322,-329 1721,-1001 399,-664 672,-1658 819,-2987 154,-1323 223,-2975 223,-4954 0,-1988 -69,-3653 -223,-4983 -147,-1337 -420,-2338 -819,-3016 -399,-685 -972,-1022 -1721,-1022 -756,0 -1330,337 -1735,1022 -399,678 -673,1679 -820,3016 -140,1330 -216,2995 -216,4983zm49109 0c0,2414 -196,4569 -573,6465 -385,1904 -994,3513 -1841,4842 -839,1330 -1945,2345 -3331,3044 -1378,700 -3072,1050 -5080,1050 -2505,0 -4556,-616 -6151,-1840 -1602,-1225 -2778,-2989 -3534,-5284 -762,-2295 -1140,-5052 -1140,-8277 0,-3247 342,-6025 1035,-8335 693,-2309 1826,-4080 3415,-5318 1582,-1232 3708,-1847 6375,-1847 2498,0 4549,615 6137,1840 1595,1225 2771,2995 3540,5304 763,2310 1148,5095 1148,8356zm-13596 0c0,1965 77,3617 216,4947 147,1329 421,2330 820,2994 405,672 980,1001 1735,1001 749,0 1322,-329 1721,-1001 399,-664 673,-1658 819,-2987 154,-1323 223,-2975 223,-4954 0,-1988 -69,-3653 -223,-4983 -146,-1337 -420,-2338 -819,-3016 -399,-685 -972,-1022 -1721,-1022 -755,0 -1330,337 -1735,1022 -399,678 -673,1679 -820,3016 -139,1330 -216,2995 -216,4983zm16507 2281c0,-1722 126,-3444 371,-5150 245,-1701 686,-3318 1330,-4830 643,-1511 1553,-2854 2729,-4030 1175,-1169 2687,-2092 4527,-2763 1847,-673 4094,-1008 6746,-1008 588,0 1308,35 2155,104 847,64 1553,148 2113,245l0 6334c-560,-112 -1190,-204 -1889,-274 -700,-76 -1554,-119 -2562,-119 -2022,0 -3617,308 -4785,917 -1169,616 -2015,1491 -2534,2632 -518,1140 -818,2504 -903,4100l245 0c357,-658 791,-1246 1303,-1771 517,-531 1147,-944 1896,-1252 756,-308 1665,-462 2728,-462 1750,0 3254,377 4507,1141 1260,763 2226,1868 2897,3317 665,1455 1001,3218 1001,5304 0,2246 -428,4170 -1281,5766 -854,1595 -2072,2813 -3652,3653 -1575,846 -3458,1266 -5648,1266 -1609,0 -3100,-259 -4479,-784 -1370,-518 -2567,-1315 -3582,-2393 -1022,-1077 -1812,-2442 -2379,-4094 -567,-1651 -854,-3597 -854,-5849zm11113 6703c860,0 1560,-329 2098,-986 539,-665 813,-1701 813,-3122 0,-1140 -224,-2036 -666,-2686 -447,-658 -1168,-980 -2162,-980 -671,0 -1239,160 -1700,483 -469,321 -826,728 -1071,1225 -245,497 -371,1014 -371,1546 0,538 64,1077 176,1610 119,538 300,1021 552,1454 259,435 574,784 959,1058 378,266 839,398 1372,398z"/>
 </g>
</svg>
