<?xml version="1.0" encoding="UTF-8"?>
<!DOCTYPE svg PUBLIC "-//W3C//DTD SVG 1.1//EN" "http://www.w3.org/Graphics/SVG/1.1/DTD/svg11.dtd">
<!-- Creator: CorelDRAW X7 -->
<svg xmlns="http://www.w3.org/2000/svg" xml:space="preserve" width="24.3316mm" height="10.1126mm" version="1.1" style="shape-rendering:geometricPrecision; text-rendering:geometricPrecision; image-rendering:optimizeQuality; fill-rule:evenodd; clip-rule:evenodd"
viewBox="0 0 561397 233325"
 xmlns:xlink="http://www.w3.org/1999/xlink">
 <defs>
  <style type="text/css">
   <![CDATA[
    .fil0 {fill:#05ABAB;fill-rule:nonzero}
   ]]>
  </style>
 </defs>
 <g id="Слой_x0020_1">
  <metadata id="CorelCorpID_0Corel-Layer"/>
  <path class="fil0" d="M3532 1073l24321 0c10076,0 17270,1497 21553,4476 4298,2997 6446,7293 6446,12877 0,3062 -554,5650 -1645,7782 -1105,2132 -2489,3810 -4151,5046 -1675,1237 -3384,2084 -5126,2541l0 470c1903,473 3809,1272 5696,2361 1890,1091 3468,2736 4721,4916 1255,2183 1890,5130 1890,8856 0,4218 -1076,7863 -3224,10925 -2150,3043 -5210,5387 -9180,7032 -3973,1643 -8694,2458 -14165,2458l-27136 0 0 -69740zm18835 26746l5680 0c3110,0 5307,-635 6578,-1920 1269,-1287 1904,-2849 1904,-4704 0,-1906 -715,-3355 -2164,-4363 -1449,-993 -3681,-1498 -6708,-1498l-5290 0 0 12485zm0 13788l0 14651 6624 0c3290,0 5567,-699 6871,-2115 1301,-1417 1954,-3191 1954,-5323 0,-1237 -277,-2409 -830,-3517 -554,-1091 -1498,-1986 -2834,-2669 -1333,-683 -3191,-1027 -5535,-1027l-6250 0zm78025 -26160c-2231,0 -4218,473 -5960,1417 -1758,944 -3239,2312 -4476,4102 -1253,1791 -2199,3973 -2849,6544 -651,2572 -976,5486 -976,8742 0,4411 553,8124 1677,11119 1105,3011 2799,5274 5078,6804 2264,1548 5127,2312 8563,2312 3110,0 6105,-439 8986,-1285 2882,-863 5778,-1906 8708,-3111l0 15939c-3092,1366 -6250,2344 -9474,2946 -3223,603 -6658,912 -10272,912 -7570,0 -13772,-1514 -18573,-4527 -4820,-3011 -8369,-7194 -10646,-12552 -2263,-5355 -3403,-11573 -3403,-18654 0,-5291 731,-10143 2213,-14538 1483,-4395 3647,-8221 6513,-11460 2863,-3224 6396,-5729 10613,-7504 4216,-1774 9036,-2653 14472,-2653 3371,0 6919,390 10664,1172 3726,780 7374,2017 10939,3742l-5780 14832c-2540,-1205 -5111,-2231 -7716,-3062 -2604,-812 -5371,-1237 -8301,-1237zm32346 55366l0 -69740 18834 0 0 24614 6820 0c5976,0 10907,911 14767,2718 3857,1809 6721,4331 8610,7554 1872,3239 2799,6968 2799,11199 0,7342 -2473,13122 -7438,17337 -4950,4218 -11851,6318 -20690,6318l-23702 0zm18834 -14928l5210 0c3075,0 5339,-683 6788,-2036 1449,-1349 2164,-3271 2164,-5795 0,-1611 -374,-2979 -1124,-4068 -731,-1108 -1758,-1938 -3075,-2508 -1304,-570 -2753,-863 -4380,-863l-5583 0 0 15270zm109134 -19975c0,5388 -651,10289 -1936,14700 -1287,4412 -3306,8205 -6040,11396 -2734,3175 -6235,5616 -10533,7325 -4298,1710 -9425,2557 -15399,2557 -5860,0 -10925,-847 -15189,-2557 -4282,-1709 -7798,-4134 -10565,-7309 -2768,-3175 -4819,-6968 -6153,-11396 -1336,-4427 -2003,-9360 -2003,-14796 0,-7261 1188,-13579 3597,-18950 2393,-5355 6105,-9522 11135,-12468 5030,-2947 11444,-4412 19275,-4412 7944,0 14407,1481 19372,4444 4981,2962 8627,7129 10955,12517 2312,5373 3484,11688 3484,18949zm-47989 17c0,4199 487,7814 1430,10841 963,3028 2476,5356 4543,6985 2068,1626 4770,2441 8108,2441 3466,0 6218,-815 8269,-2441 2052,-1629 3533,-3957 4428,-6985 912,-3027 1366,-6642 1366,-10841 0,-6315 -1041,-11315 -3140,-14977 -2100,-3662 -5715,-5503 -10826,-5503 -3403,0 -6153,831 -8237,2492 -2083,1659 -3581,4019 -4527,7081 -943,3060 -1414,6691 -1414,10907zm107064 -34854l0 15221 -27560 0 0 54519 -18931 0 0 -69740 46491 0zm75227 34837c0,5388 -651,10289 -1936,14700 -1287,4412 -3306,8205 -6040,11396 -2735,3175 -6235,5616 -10533,7325 -4299,1710 -9425,2557 -15399,2557 -5860,0 -10925,-847 -15189,-2557 -4282,-1709 -7798,-4134 -10565,-7309 -2768,-3175 -4820,-6968 -6153,-11396 -1336,-4427 -2003,-9360 -2003,-14796 0,-7261 1188,-13579 3597,-18950 2393,-5355 6105,-9522 11135,-12468 5030,-2947 11444,-4412 19275,-4412 7944,0 14407,1481 19372,4444 4981,2962 8627,7129 10955,12517 2312,5373 3484,11688 3484,18949zm-47989 17c0,4199 487,7814 1430,10841 962,3028 2476,5356 4543,6985 2068,1626 4769,2441 8108,2441 3466,0 6218,-815 8269,-2441 2052,-1629 3533,-3957 4428,-6985 911,-3027 1366,-6642 1366,-10841 0,-6315 -1041,-11315 -3140,-14977 -2100,-3662 -5715,-5503 -10826,-5503 -3403,0 -6154,831 -8237,2492 -2083,1659 -3581,4019 -4527,7081 -944,3060 -1414,6691 -1414,10907zm136221 -18574c0,4621 -1416,8318 -4215,11086 -2817,2783 -6887,4622 -12194,5549l0 377c6446,553 11248,2279 14374,5191 3143,2930 4705,6707 4705,11363 0,4086 -1124,7716 -3369,10874 -2231,3159 -5535,5632 -9898,7409 -4347,1791 -9702,2686 -16068,2686 -6038,0 -11248,-344 -15611,-1043 -4379,-699 -8025,-1611 -10955,-2718l0 -16229c1936,959 4199,1774 6756,2457 2554,683 5159,1220 7796,1578 2637,358 5014,554 7148,554 5404,0 9229,-586 11476,-1742 2245,-1156 3353,-3011 3353,-5584 0,-2360 -1334,-4135 -4022,-5307 -2685,-1172 -6688,-1758 -11995,-1758l-8205 0 0 -15269 7342 0c4003,0 7065,-213 9181,-667 2115,-441 3564,-1124 4314,-2019 764,-895 1156,-2035 1156,-3403 0,-1675 -782,-2963 -2312,-3890 -1548,-928 -4134,-1401 -7750,-1401 -2898,0 -5761,392 -8611,1172 -2849,782 -5551,2019 -8091,3697l-7912 -12974c2637,-1710 5307,-3110 8011,-4202 2702,-1073 5680,-1871 8920,-2376 3239,-506 7016,-764 11299,-764 5239,0 9766,748 13576,2245 3793,1497 6707,3549 8742,6137 2035,2605 3059,5584 3059,8971zm57565 53460l-3436 -12990 -22660 0 -3516 12990 -20708 0 22743 -69740 25133 0 23036 69740 -20592 0zm-7342 -28440l-3014 -11396c-309,-1236 -779,-2994 -1382,-5290 -604,-2296 -1206,-4656 -1792,-7113 -586,-2458 -1041,-4477 -1350,-6057 -293,1580 -702,3532 -1221,5860 -521,2328 -1059,4624 -1629,6904 -553,2279 -1024,4183 -1449,5696l-2994 11396 14831 0zm-492539 169269l-19127 0 0 -34496c0,-635 0,-1807 0,-3500 0,-1708 16,-3581 64,-5649 49,-2067 132,-3938 229,-5583 -831,976 -1613,1822 -2328,2524 -699,699 -1401,1366 -2068,1968l-7911 6546 -9783 -12014 23945 -19536 16979 0 0 69740zm91717 -69740l0 15221 -27561 0 0 54519 -18931 0 0 -69740 46492 0zm75226 34838c0,5387 -651,10288 -1936,14699 -1287,4412 -3306,8205 -6040,11396 -2734,3175 -6234,5616 -10533,7325 -4298,1710 -9425,2557 -15399,2557 -5860,0 -10925,-847 -15188,-2557 -4283,-1709 -7799,-4134 -10565,-7309 -2769,-3175 -4820,-6968 -6154,-11396 -1336,-4427 -2003,-9360 -2003,-14796 0,-7261 1189,-13578 3597,-18950 2393,-5355 6105,-9522 11135,-12468 5030,-2947 11444,-4412 19275,-4412 7944,0 14407,1481 19372,4444 4982,2963 8627,7129 10955,12517 2312,5374 3484,11689 3484,18950zm-47989 16c0,4199 487,7814 1431,10842 962,3027 2475,5355 4543,6984 2067,1626 4769,2441 8107,2441 3466,0 6218,-815 8270,-2441 2051,-1629 3532,-3957 4427,-6984 912,-3028 1366,-6643 1366,-10842 0,-6315 -1040,-11315 -3140,-14977 -2100,-3661 -5715,-5503 -10826,-5503 -3403,0 -6153,831 -8237,2492 -2083,1659 -3581,4019 -4527,7081 -943,3060 -1414,6691 -1414,10907zm121245 -34854l0 54290 9522 0 0 37133 -18363 0 0 -21683 -40632 0 0 21683 -18363 0 0 -37133 5780 0c2164,-3661 4118,-7586 5860,-11785 1758,-4200 3288,-8611 4608,-13219 1317,-4607 2408,-9376 3239,-14277 847,-4915 1465,-9912 1839,-15009l46510 0zm-18998 15401l-12388 0c-327,3401 -782,6772 -1384,10092 -602,3320 -1368,6610 -2264,9850 -911,3255 -1954,6446 -3126,9587 -1188,3158 -2506,6268 -3955,9360l23117 0 0 -38889zm37832 -15401l17549 0 0 31907c0,1433 -18,2947 -50,4509 -33,1580 -81,3126 -146,4656 -64,1530 -131,2979 -228,4347 -97,1368 -212,2572 -342,3613l390 0 28701 -49032 21603 0 0 69740 -17598 0 0 -30198c0,-1301 32,-2782 81,-4428 48,-1661 113,-3352 180,-5110 80,-1742 177,-3436 293,-5048 113,-1627 226,-3044 357,-4248l-424 0 -28714 49032 -21652 0 0 -69740zm142308 69740l-18931 0 0 -28424 -21896 0 0 28424 -18931 0 0 -69740 18931 0 0 25867 21896 0 0 -25867 18931 0 0 69740zm75211 -69740l-21179 49032c-2051,4804 -4282,8823 -6675,12065 -2376,3223 -5390,5648 -9035,7275 -3629,1628 -8401,2443 -14277,2443 -1595,0 -3533,-115 -5794,-344 -2280,-210 -4414,-586 -6414,-1089l0 -15742c1774,699 3694,1172 5761,1416 2067,229 3925,358 5584,358 1742,0 3174,-293 4266,-847 1107,-554 1970,-1269 2605,-2116 634,-846 1107,-1677 1432,-2473l-22758 -49978 20315 0 8597 21310c438,1091 960,2409 1562,3987 602,1580 1188,3175 1742,4804 554,1626 976,3043 1269,4247l570 0c390,-1545 911,-3336 1580,-5339 667,-2018 1334,-3906 2001,-5696 669,-1775 1140,-3062 1433,-3858l7097 -19455 20318 0zm20934 44833l-15725 0 -2443 -44833 20611 0 -2443 44833zm-17972 16767c0,-3369 992,-5729 2979,-7098 1986,-1368 4347,-2051 7081,-2051 2702,0 5030,683 6968,2051 1938,1369 2914,3729 2914,7098 0,3223 -976,5535 -2914,6968 -1938,1432 -4266,2148 -6968,2148 -2734,0 -5095,-716 -7081,-2148 -1987,-1433 -2979,-3745 -2979,-6968z"/>
 </g>
</svg>
